<?xml version="1.0" encoding="UTF-8"?>
<!DOCTYPE svg  PUBLIC '-//W3C//DTD SVG 1.1//EN'  'http://www.w3.org/Graphics/SVG/1.1/DTD/svg11.dtd'>
<svg version="1.1" xmlns="http://www.w3.org/2000/svg">
<defs>
<font id="AveriaSerifLibre-Light" horiz-adv-x="1050">
<font-face font-family="Averia Serif Libre Light" font-weight="300" ascent="1622" bbox="-50 -465 1956 1823" cap-height="1389" descent="-426" panose-1="2 0 6 3 0 0 0 0 0 4" underline-position="-247" underline-thickness="100" unicode-range="U+0020-00FE" units-per-em="2048" x-height="951"/>
<missing-glyph/>
<glyph glyph-name="space" horiz-adv-x="519" unicode=" "/>
<glyph d="M415 1304v-67l-1 -11l-1 -23q-1 -12 -1 -22l-3 -46q0 -326 -67 -694q-9 -50 -41 -50h-11q-54 0 -54 124l-23 286q-5 60 -5 72l-3 36q-3 36 -3 48l-2 24q-4 48 -4 71l-2 24l-1 35l-4 69l-3 109q0 82 28 108t91 26h12q49 0 73.5 -26.5t24.5 -92.5zM283 -21q-39 0 -80 29.5 t-41 80.5v20q0 34 32 72.5t74 38.5l21 3h12q15 -3 30.5 -3t53 -31t37.5 -76v-20q0 -40 -35.5 -75.5t-70.5 -35.5l-21 -3h-12z" glyph-name="exclam" horiz-adv-x="590" unicode="!"/>
<glyph d="M111 1380q0 67 93 67h27q72 0 72 -71l2 -12v-38l-1 -7v-12l-3 -39q-7 -42 -7 -58q0 -112 -51 -252q-13 -37 -52 -37h-13q-33 0 -33 135v26l-1 13v20l-4 47q-3 21 -3 33l-26 160v25zM470 1144q-5 50 -5 56.5t-13 56t-13 106.5v7q0 77 90 77h26q78 0 78 -79v-57l-1 -7 l-2 -25l-3 -32l-7 -53q0 -98 -51 -238q-13 -35 -53 -35h-13q-31 0 -31 138v39l-2 33v13z" glyph-name="quotedbl" horiz-adv-x="758" unicode='"'/>
<glyph d="M483 730q0 -9 -10 -48t-13.5 -61.5t-12.5 -47.5t-9 -45v-5q0 -14 59 -14h54l18 2q98 0 123 7.5t25 49.5l51 237v5q0 11 -14 11l-28 3h-11l-23 2h-48l-6 -1q-115 0 -135 -15t-20 -80zM92 448q0 39 36 56q14 6 85 10.5t93 26.5q54 55 54 219q0 46 -78 52q-129 10 -129 39 q0 45 35 61q12 6 89.5 16.5t107.5 43t53.5 145.5t40 147.5t58.5 34.5t42 -42t-22.5 -154.5t-22.5 -133.5t18.5 -31t121 -10t121.5 33q7 13 30 125t35 143q25 64 67 64t42 -48l-22 -192q0 -65 21.5 -85.5t82.5 -39t61 -51.5q0 -45 -70 -55q-133 -20 -145 -35 q-52 -65 -52 -193q0 -52 26 -65q12 -6 74 -10t79 -9q31 -10 31 -56q0 -37 -101 -48t-129.5 -45.5t-57.5 -155t-33 -128.5q-21 -45 -63.5 -45t-42.5 44t22.5 155t22.5 131.5t-13 31.5t-118.5 11t-122.5 -23t-41 -149t-42 -163.5t-52 -37.5q-49 0 -49 42l32 228q0 41 -19.5 64 t-87.5 35.5t-68 46.5z" glyph-name="numbersign" horiz-adv-x="1227" unicode="#"/>
<glyph d="M506 1254h-9q-50 0 -112 -69.5t-62 -108.5v-24q4 -24 4 -30q0 -75 48.5 -152.5t105.5 -77.5h7q11 0 11 50l9 58q4 20 4 26l2 17v51l-9 52q-1 6 -1 12l-2 13v38l1 19l2 25q4 24 4 30l4 29v12l1 5q0 25 -8 25zM810 351q0 97 -58 155q-87 87 -151 87h-4q-11 0 -11 -136v-72 l1 -6l3 -57v-79l-4 -63v-22q3 -15 3 -30.5t9 -15.5h9q83 0 144 53.5t61 159.5v6q-2 14 -2 20zM150 227q0 118 52 118q24 0 63.5 -81t65.5 -105q57 -53 126 -53q32 0 41 51t9 218t-17.5 195t-121 89.5t-142.5 114.5q-62 84 -62 193t52.5 176t124.5 103q8 4 59.5 26.5t72.5 41 t42.5 70t45.5 51.5q33 0 50 -57t61 -81.5t113 -37.5t96.5 -37.5t27.5 -97.5q0 -131 -58 -131q-20 0 -76.5 86t-103 86t-59.5 -37.5t-13 -245.5q0 -101 35 -137q13 -13 50 -33l29 -15q145 -78 203 -153.5t58 -201.5q0 -208 -212 -306q-19 -9 -66 -26.5t-70.5 -35.5t-35 -83 t-32.5 -65h-23q-29 0 -39 63.5t-41 89.5t-130 46.5t-129 45.5q-46 38 -46 156z" glyph-name="dollar" horiz-adv-x="1101" unicode="$"/>
<glyph d="M524 993v49q-3 24 -3 38q0 84 -41.5 143.5t-99.5 59.5l-6 -1q-58 0 -99.5 -65.5t-41.5 -192.5v-16l1 -8l1 -24l2 -30q0 -69 40.5 -132.5t96.5 -63.5h13q61 0 99 70t38 173zM1313 338v42q-3 24 -3 39q0 82 -44 142.5t-98 60.5h-12q-65 0 -106.5 -76t-41.5 -197v-8l1 -9 q0 -108 39 -179.5t95 -71.5h25q55 0 100 70.5t45 186.5zM711 1031v-34q0 -143 -90.5 -240t-218.5 -97h-22q-116 0 -195.5 85.5t-79.5 232.5v34q0 135 87 235.5t211 100.5h44q122 0 193 -94.5t71 -222.5zM1190.5 1362q48.5 0 48.5 -25q0 -65 -792 -1274q-47 -71 -96.5 -71 t-49.5 25q0 17 40 83q471 775 744 1178q57 84 105.5 84zM890 325v22q0 140 81.5 234t207.5 94h11q118 0 200 -88.5t82 -234.5v-11l-1 -11q0 -132 -78.5 -230t-202.5 -98h-31q-62 0 -116.5 30.5t-85.5 73.5q-67 91 -67 219z" glyph-name="percent" horiz-adv-x="1585" unicode="%"/>
<glyph d="M464 1124v-21q0 -64 70 -192q42 -77 78 -77q29 0 82.5 68.5t53.5 119.5q2 12 2 18l2 32v28q0 79 -38.5 139.5t-99.5 60.5h-11q-58 0 -108 -71q-31 -44 -31 -105zM281 408v-37q0 -111 85.5 -190t187.5 -79h54q63 0 145 44t82 82v7q0 18 -179 227t-200 209 q-56 0 -115.5 -92.5t-59.5 -170.5zM1047 695q0 72 154 72q88 0 88 -36q0 -21 -41.5 -73.5t-79.5 -148t-38 -178t61 -155.5q31 -37 86 -66t55 -43t-12 -21q-58 -36 -143.5 -36t-162.5 35t-133 35q-16 0 -141 -46.5t-243 -46.5q-173 0 -287.5 105t-114.5 263.5t155 294.5 q108 95 108 124.5t-41 124t-41 173.5q0 114 89 201t225 87t214 -73t78 -173t-67 -196.5t-67 -184.5t83 -176q49 -52 127 -52q20 0 42 27q47 58 47 163z" glyph-name="ampersand" horiz-adv-x="1527" unicode="&amp;"/>
<glyph d="M128 1387q0 70 98 70h20q77 0 77 -81v-44l-1 -6l-1 -26l-4 -39q0 -126 -58 -285q-16 -44 -59 -44h-7q-34 0 -34 145v39l-5 73q-1 7 -1 20t-11.5 59t-11.5 69l-2 12v38z" glyph-name="quotesingle" horiz-adv-x="436" unicode="'"/>
<glyph d="M306 599q0 -424 165 -702q25 -41 73 -104.5t48 -92t-44 -28.5t-138 104q-288 319 -288 803v22q0 271 108 519q59 136 142 234q137 162 182 162h18q35 0 35 -33q0 -21 -49 -81.5t-71 -93.5q-66 -97 -108 -224q-73 -219 -73 -485z" glyph-name="parenleft" horiz-adv-x="666" unicode="("/>
<glyph d="M76 1481q0 36 48.5 36t170.5 -145q162 -192 219 -455q34 -155 34 -276v-88q0 -136 -40 -282q-82 -302 -260 -494q-100 -107 -144 -107t-44 28q0 1 89.5 139.5t127.5 243.5q82 228 82 460l2 44l-1 69q0 440 -228 733q-56 72 -56 94z" glyph-name="parenright" horiz-adv-x="665" unicode=")"/>
<glyph d="M482 1430q70 0 70 -92q0 -33 -14 -122l-9 -57q0 -19 9 -19t91 50.5t118 50.5q65 0 65 -68q0 -50 -79 -84q-115 -49 -115 -55q0 -18 45 -53q82 -63 82 -109q0 -53 -50 -53q-15 0 -53.5 14.5t-63 30.5t-25.5 16q-15 0 -28.5 -48.5t-22.5 -57.5q-28 -26 -72 -26 q-51 0 -51 82q0 55 -21.5 55t-63.5 -14t-66 -14q-32 0 -32 51t43 97q5 5 30 26.5t25 27t-29.5 21t-69.5 54t-40 65.5q0 58 58 58q51 0 116 -46.5t80 -46.5q10 0 10 47l-7 144q0 75 70 75z" glyph-name="asterisk" horiz-adv-x="924" unicode="*"/>
<glyph d="M521 1032h35q35 0 41 -33q2 -10 2 -169.5t7.5 -168.5t165 -9t176.5 -3q33 -5 33 -39q0 -60 -20 -69.5t-184 -9.5t-171.5 -9t-7.5 -169.5t-2 -173.5q-5 -35 -39 -35h-18q-54 0 -60 33q-3 15 -3 178.5t-16 171.5q-4 2 -184.5 2t-180.5 38v17q0 53 32 62q15 4 173.5 4 t168 8.5t9.5 169t2 170.5q7 34 41 34z" glyph-name="plus" horiz-adv-x="1074" unicode="+"/>
<glyph d="M395 79v-24q0 -116 -69 -208q-105 -140 -171 -140h-6q-32 0 -32 32q0 9 60 75t60 123q0 22 -57.5 79.5t-57.5 106t36.5 82t83.5 33.5h24q58 0 93.5 -43.5t35.5 -115.5z" glyph-name="comma" horiz-adv-x="511" unicode=","/>
<glyph d="M152 481q-38 0 -38 45v15l1 7q0 55 31 62.5t283 7.5l206 5h27q45 0 45 -45v-14l-1 -8q0 -54 -33 -62t-281 -8l-7 -1h-29l-14 -1h-36l-14 -1h-36l-14 -1h-35l-21 -1h-34z" glyph-name="hyphen" horiz-adv-x="816" unicode="-"/>
<glyph d="M253 -23h-8q-59 0 -93 40.5t-34 89.5l1 5q0 36 31.5 80t88.5 44h26q38 0 77.5 -33t39.5 -84v-21q0 -52 -41.5 -86.5t-87.5 -34.5z" glyph-name="period" horiz-adv-x="501" unicode="."/>
<glyph d="M733 1468h18q56 0 56 -21q0 -105 -599 -1503q-41 -96 -58.5 -116t-66 -20t-48.5 19q0 25 43 132q491 1226 553 1367.5t102 141.5z" glyph-name="slash" horiz-adv-x="834" unicode="/"/>
<glyph d="M299 694v-111q0 -222 80 -365t208 -143q127 0 199 127q84 149 84 380v80q0 214 -73 368t-207 154q-133 0 -212 -139t-79 -351zM580 1277h39q203 0 339 -180q65 -86 97 -211t32 -242v-21q0 -139 -39 -259q-80 -248 -256 -335q-96 -48 -193 -48h-38q-100 0 -188 50 q-183 104 -244 340q-32 124 -32 244v21q0 136 38 258q74 237 254 335q88 48 191 48z" glyph-name="zero" horiz-adv-x="1204" unicode="0"/>
<glyph d="M583 1151q0 -5 -10 -102.5t-10 -150.5l-3 -103v-41l-1 -21v-125q0 -343 16.5 -396.5t82 -100.5t65.5 -67q0 -45 -115 -45h-146l-21 1q-265 0 -265 45q0 22 83 72q54 33 74.5 100t20.5 388.5t-10 376t-32.5 71.5t-64.5 17q-102 0 -102 34v11q0 21 58 47q229 104 318 104 q62 0 62 -115z" glyph-name="one" horiz-adv-x="854" unicode="1"/>
<glyph d="M836 -1h-129l-33 1q-116 4 -162 4l-32 1q-32 1 -65 1h-96q-102 0 -122 5q-59 15 -59 54v22q0 47 85 146q30 34 189 186.5t214 230.5q101 143 101 283q0 93 -61.5 159.5t-151.5 66.5q-152 0 -214 -150q-26 -65 -45.5 -85.5t-61.5 -20.5q-51 0 -51 101t121 181t299 80 t273.5 -91t95.5 -234.5t-107 -280.5q-78 -100 -273 -263.5t-195 -211.5q0 -33 192 -33t238.5 16.5t100.5 64.5t61 48q37 0 37 -63q0 -114 -31 -166t-118 -52z" glyph-name="two" horiz-adv-x="1104" unicode="2"/>
<glyph d="M471 -96h-32q-147 0 -237 56q-89 56 -89 129.5t72 73.5q42 0 147 -90q66 -57 166.5 -57t171.5 76t71 200t-91 205q-51 45 -156 73q-105 26 -105 52q1 26 93 72q198 98 198 289q0 71 -48.5 120.5t-113.5 49.5t-111 -23.5t-95.5 -84.5t-96.5 -61q-62 0 -62 83.5t107 143 t272 59.5q344 0 344 -279q0 -85 -55 -166q-24 -36 -84.5 -94.5t-60.5 -62.5q0 -2 82 -52q196 -117 196 -303q0 -185 -152 -303q-60 -47 -149 -76.5t-182 -29.5z" glyph-name="three" horiz-adv-x="1081" unicode="3"/>
<glyph d="M622 1011q-4 0 -70 -105l-140 -195q-10 -14 -35.5 -44t-39.5 -50t-22 -30l-54 -73q-28 -38 -50.5 -64.5t-22.5 -32.5v-5q0 -3 10 -3h24l8 1l84 5l9 1l126 -3q125 0 139 7q16 8 16 69l4 65l1 9l2 37l1 9l1 19v19l1 29v19l1 19v28l2 57q3 27 3 36l3 27v16l3 57v16l1 17v38 l-2 5h-3zM669 -77h-40q-43 0 -75.5 21.5t-32.5 41.5t33 72t33 102q0 83 -52.5 110t-256 27t-203.5 64v17q0 71 505 738q103 136 174 136q42 0 53 -55q5 -25 5 -305t28 -367q17 -52 80.5 -86t63.5 -64q0 -23 -28 -42q-42 -28 -55 -48q-45 -70 -45 -145q0 -25 19.5 -55.5 t19.5 -58.5q0 -42 -67 -72.5t-159 -30.5z" glyph-name="four" horiz-adv-x="1127" unicode="4"/>
<glyph d="M184 760.5q0 118.5 24 251.5t46.5 173.5t59.5 53t147 12.5l67 -2q34 -1 104.5 -1t148.5 16l55 12h26q52 0 52 -62q0 -89 -53 -111q-28 -12 -130 -12t-134 1l-129 4q-94 0 -121 -42q-39 -62 -39 -192q0 -64 31 -83q16 -10 111 -10q216 0 353 -113.5t137 -288.5v-33 q0 -78 -32 -154q-69 -162 -253 -229q-101 -37 -190 -37h-32q-144 0 -232 52t-88 126.5t87 74.5q27 0 119 -81q64 -56 169 -56t176 88.5t71 232t-92.5 221t-234.5 77.5l-145 -7q-79 0 -79 118.5z" glyph-name="five" horiz-adv-x="1081" unicode="5"/>
<glyph d="M563 71h29q97 0 162.5 89.5t65.5 224.5v32q0 144 -67 235t-171 91h-40q-107 0 -184 -83q-50 -54 -50 -160v-51q0 -168 72 -273t183 -105zM362 886q0 -80 107 -80l63 7q45 5 104.5 5t139.5 -32q153 -61 212 -212q30 -75 30 -168t-32 -172q-64 -155 -230 -224 q-80 -33 -174 -33h-26q-206 0 -334 153q-60 71 -91 181.5t-31 220.5v56q0 151 51 293q104 288 362 396q126 52 230 52q187 0 187 -75q0 -39 -31 -53t-95 -14l-105 6q-119 0 -191.5 -65.5t-109 -133.5t-36.5 -108z" glyph-name="six" horiz-adv-x="1144" unicode="6"/>
<glyph d="M828 1257q77 0 101 -16t24 -52q0 -61 -270 -682q-90 -207 -124.5 -351.5t-48.5 -176.5q-33 -78 -116 -78h-23q-67 0 -67 56q0 84 235 575.5t235 510.5q0 41 -40.5 51t-234.5 10t-226 -16t-75 -74.5t-74.5 -58.5t-31.5 55v23q0 151 33 204q18 28 71 28l224 -9l103 -2 l230 2l26 1h49z" glyph-name="seven" horiz-adv-x="1042" unicode="7"/>
<glyph d="M781 1056q0 108 -66.5 174.5t-158.5 66.5h-31q-78 0 -132 -60t-54 -138v-41q0 -81 79 -168q33 -37 98.5 -72t88.5 -35h14q49 0 104.5 76t55.5 148l2 16v33zM270 389v-47q0 -120 87 -193.5t192 -73.5h18q101 0 175.5 69t74.5 173v18q0 181 -248 298q-62 29 -84 29h-9 q-66 0 -148 -107q-58 -75 -58 -166zM529 -24q-182 0 -307 91q-59 43 -95 113t-36 140v22q0 148 143 270q98 83 98 86.5t-56 57.5t-94 116q-38 64 -38 146q0 158 116.5 253t283.5 95h24q165 0 270 -85t105 -223.5t-117 -246.5q-80 -75 -80 -87q0 -7 36.5 -31.5t74.5 -54 t71 -75.5q68 -94 68 -197v-22q0 -156 -125 -262t-318 -106h-24z" glyph-name="eight" horiz-adv-x="1134" unicode="8"/>
<glyph d="M547 1194h-20l-10 -1q-98 0 -163 -89t-65 -202v-74q0 -138 72.5 -222.5t173.5 -84.5h29q105 0 170.5 65.5t65.5 185.5v31l-1 10q0 169 -71 275t-181 106zM747 373q0 36 -31 62t-60 26t-75 -6t-113 -6h-4q-65 0 -137 33q-146 66 -202 205q-32 78 -32 171q0 184 112 298 q60 62 144.5 97.5t167.5 35.5h26q206 0 335 -143q60 -67 95 -179.5t35 -220.5v-56q0 -324 -179 -538q-78 -94 -205 -153t-246 -59h-23q-173 0 -173 83q0 58 100 58l122 -11q122 0 194.5 63.5t110.5 133.5t38 106z" glyph-name="nine" horiz-adv-x="1144" unicode="9"/>
<glyph d="M280 678h-26q-8 2 -13 2q-32 0 -66.5 34.5t-34.5 68.5l-2 9v25q0 37 33 76.5t73 39.5l20 3h17q12 -3 31.5 -3t54.5 -35t35 -84v-9q0 -45 -34.5 -86t-87.5 -41zM134 129l2 20q0 36 40 70.5t87 34.5h9q16 -4 37 -4t54 -33t33 -67l3 -21v-9q-3 -12 -3 -31.5t-37 -56.5 t-90 -37h-8l-5 1h-8q-8 2 -13 2q-31 0 -64.5 33.5t-33.5 63.5l-4 30z" glyph-name="colon" horiz-adv-x="533" unicode=":"/>
<glyph d="M308 912q35 0 66.5 -38t31.5 -89l-1 -4q0 -46 -35.5 -88.5t-95.5 -42.5h-8l-4 1h-8q-12 3 -16 3q-28 0 -58 36t-30 81v13q0 37 33.5 83.5t88.5 46.5h25q8 -2 11 -2zM407 101v-45q0 -99 -67 -188q-99 -132 -161 -132h-12q-24 0 -24 31q0 12 25 35q90 82 90 164 q0 25 -55 74.5t-55 116.5q0 34 33 67t78 33h22q55 0 90.5 -43t35.5 -113z" glyph-name="semicolon" horiz-adv-x="546" unicode=";"/>
<glyph d="M92 580v17q0 26 212 151q581 342 609.5 342t28.5 -59q0 -37 -54.5 -76.5t-328.5 -193t-274 -173.5q0 -11 237 -143t349 -205q74 -48 74 -87q0 -65 -30 -65q-36 0 -629 349q-194 114 -194 143z" glyph-name="less" horiz-adv-x="1075" unicode="&lt;"/>
<glyph d="M987 785v-39q0 -41 -25 -45.5t-421 -4.5h-166l-39 -1h-156q-59 0 -59 42v20l1 10q0 41 24.5 45.5t418.5 4.5l286 1h68q68 0 68 -33zM919 478q67 0 67 -45v-9l-1 -10q0 -49 -27 -53.5t-422 -4.5h-166l-19 -1h-99l-29 -1h-10q-95 0 -95 45v20q0 55 39 55l674 4h88z" glyph-name="equal" horiz-adv-x="1117" unicode="="/>
<glyph d="M165 1090q13 0 280 -153.5t331 -189.5q205 -115 205 -155t-47 -68q-718 -435 -779 -435q-25 0 -25 48v16q0 35 304 219q2 1 180.5 104t178.5 107q0 16 -276 175t-328 195.5t-52 86.5t28 50z" glyph-name="greater" horiz-adv-x="1074" unicode="&gt;"/>
<glyph d="M456 467.5q0 -85.5 -47 -85.5h-16q-18 0 -41.5 40.5t-23.5 125t46 163.5q18 31 100 120t109 146.5t27 127t-50 113t-139 43.5t-138 -61q-75 -93 -122 -93q-64 0 -64 98t91.5 154t227.5 56h20q175 0 284.5 -94t109.5 -238v-20q0 -101 -52 -180.5t-164 -173t-135 -125 t-23 -117zM359.5 -27q-14.5 0 -50.5 30t-36 68l-3 21v16q2 8 2 12q0 31 35 66t71 35l8 2h25q52 0 84.5 -39t32.5 -82v-4l-1 -4q0 -42 -33 -81.5t-75 -39.5l-20 -3h-4l-5 1h-8q-8 2 -22.5 2z" glyph-name="question" horiz-adv-x="932" unicode="?"/>
<glyph d="M927 843h-15q-37 0 -95 -33t-105 -94q-83 -108 -83 -247v-17q0 -101 27 -160t80 -59h15q33 0 100 43t103 99q85 132 85 313l1 25v8q0 51 -29.5 86.5t-83.5 35.5zM1268 -41q32 0 32 -32l-29 -31q-51 -40 -166 -77t-225 -37h-60q-148 0 -290 58q-286 117 -381 407 q-40 121 -40 261q1 140 53 292q72 208 278.5 352t501.5 144q145 0 272 -56q238 -106 326 -335q42 -109 42 -231q0 -223 -137 -371q-60 -65 -134.5 -102t-144 -37t-144.5 39t-91.5 39t-89.5 -35t-136.5 -35t-111.5 37q-84 65 -84 181q0 212 106 367q46 67 111 108t133 41 l46 -1l43 -3l41 -4l39 1l34 5q37 0 59.5 -26.5t22.5 -115.5l-1 -51l-3 -54q-6 -131 -6 -199t24.5 -114.5t94.5 -46.5l43 16q58 30 107 117.5t49 225.5q0 235 -151 380.5t-417 145.5q-110 0 -208 -40q-153 -62 -239 -160q-175 -197 -175 -471.5t171.5 -450t467.5 -175.5 q137 0 243.5 37t123.5 37z" glyph-name="at" horiz-adv-x="1738" unicode="@"/>
<glyph d="M859 591v12q0 66 -170 491q-24 60 -28.5 60t-105 -268t-100.5 -291q0 -18 96 -18h172q136 0 136 14zM20 53q0 20 60.5 58t93.5 112q1 3 68 176.5t147.5 364t105.5 264t56 173.5t44 122q40 68 108 68q23 0 48 -18q75 -55 174 -345q39 -114 165 -453t150 -389t64 -73 q82 -47 82 -69q0 -39 -154 -39h-118q-175 0 -175 36q0 24 33 59.5t33 73t-39.5 137t-58.5 125.5q-35 48 -147 48l-58 2q-30 1 -89 1q-161 0 -192 -26.5t-74 -137t-43 -150.5t41.5 -79t41.5 -46q0 -35 -98 -35q-269 0 -269 40z" glyph-name="A" horiz-adv-x="1436" unicode="A"/>
<glyph d="M583 1297h-18q-93 0 -104 -35q-7 -24 -7 -138v-123l-1 -26v-98q0 -82 13 -96t64 -14h71q153 0 222 58q90 76 90 198v28q0 126 -103 197q-71 49 -227 49zM642 676h-90q-80 0 -90 -23t-10 -163v-242q0 -112 12 -129q23 -33 128 -33h62q230 0 302 150q28 60 28 128v11l-1 11 q0 141 -93 215.5t-248 74.5zM277 -3q-171 0 -171 35q0 30 55 50.5t71.5 64t16.5 263.5l1 26q1 26 1 52l1 26v53l-1 78v80q0 442 -22 508q-14 41 -74 63.5t-60 49.5q0 39 210 39l155 3h157q231 0 357.5 -85.5t126.5 -251.5q0 -100 -49.5 -169.5t-107.5 -105t-58 -42.5t52 -31 t57 -27q69 -39 114 -96q77 -97 77 -209v-26q0 -75 -34 -143q-65 -126 -229 -178q-109 -34 -230 -34h-79l-157 4l-78 3h-102z" glyph-name="B" horiz-adv-x="1314" unicode="B"/>
<glyph d="M106 714q0 132 51 266t142 231.5t214.5 145t246.5 47.5t216 -22t148 -26t70 -14q48 -31 48 -189q0 -113 -58 -113q-22 0 -77.5 82.5t-102.5 110.5q-106 63 -227 63q-219 0 -343 -181q-101 -149 -101 -384q0 -297 111 -453q126 -178 365 -178q125 0 216 55q45 27 105 93 t94.5 66t34.5 -45t-34.5 -111t-74.5 -91t-154.5 -53.5t-195.5 -28.5h-70q-127 1 -250 53q-245 105 -331 367q-43 131 -43 273v36z" glyph-name="C" horiz-adv-x="1361" unicode="C"/>
<glyph d="M647 1302h-50q-113 0 -127 -46q-6 -20 -6 -288v-286l-1 -34v-85l-1 -35v-85l-1 -69v-101q0 -113 20.5 -145.5t136.5 -32.5h50q332 1 448 325q38 108 38 222v74q0 114 -33 232q-64 228 -267 316q-88 38 -207 38zM722 1395q132 0 259 -44q127 -43 217 -133 q190 -190 190 -515.5t-211 -525.5q-194 -182 -512 -182h-24l-25 1l-100 2q-25 1 -50 1l-73 2h-72q-202 0 -202 30t63 55.5t77 75t14 494.5t-14 521.5t-32.5 91.5t-67 30t-48.5 36v16q0 31 188 31l345 13h78z" glyph-name="D" horiz-adv-x="1513" unicode="D"/>
<glyph d="M128 1353q0 28 84 37q39 4 428 4l298 1q94 0 136.5 -45.5t42.5 -158.5q0 -49 -22 -49q-9 0 -53.5 41t-85.5 52q-135 38 -300 38q-87 0 -128 -90t-41 -243q0 -87 52.5 -122.5t154.5 -35.5q38 0 95 43.5t80 43.5t45.5 -34t22.5 -132t-32 -130l-25 -12q-18 0 -107 64 q-47 34 -142 34t-134 -59q-26 -39 -26 -201.5t54 -235.5q33 -44 190 -44t236.5 31t132.5 80.5t66 49.5q20 0 20 -32q0 -179 -74 -227q-35 -23 -329 -23h-177q-343 0 -405.5 7t-62.5 34.5t48 60t61 71.5q24 71 24 467l4 392q0 168 -12 205.5t-65.5 59.5t-53.5 58z" glyph-name="E" horiz-adv-x="1272" unicode="E"/>
<glyph d="M1126 1182q0 -66 -38 -66q-4 0 -24 25l-28 36q-91 107 -324 107q-152 0 -192 -71t-40 -214.5t36 -186t156 -42.5q63 0 122.5 41.5t79.5 41.5q56 0 56 -155q0 -62 -19 -103.5t-55 -41.5q-12 0 -70.5 30.5t-109.5 30.5q-121 0 -169 -64q-22 -29 -22 -159t21 -209t36 -98 t29.5 -33t14.5 -19q0 -38 -142 -38h-71q-133 0 -188 16t-55 53q0 10 50.5 44t62 68t11.5 316l8 434q0 248 -23 312q-12 32 -66 65.5t-54 55.5q0 32 234 32l217 3l73 2q37 1 73 1l255 3q83 0 119 -41t36 -176z" glyph-name="F" horiz-adv-x="1194" unicode="F"/>
<glyph d="M800 1401q31 0 279 -34l36 -4l34 -3q48 -5 63 -11q64 -26 64 -181q0 -119 -66 -119q-19 0 -74 80t-99 107q-103 62 -268 62q-95 0 -181 -50q-258 -147 -258 -565q0 -125 39.5 -245.5t111.5 -196.5t152 -107.5t208 -31.5t185.5 63t57.5 236q0 66 -39 110q-11 13 -48 37 t-37 37q0 40 195 40t195 -49q0 -11 -26.5 -49.5t-32.5 -72t-9 -117t-8 -147.5t-35.5 -92.5t-186.5 -74.5t-284 -46q-128 1 -254 49q-255 99 -353 359q-52 139 -52 284v42v5q0 138 55 274q107 266 353 360q132 51 283 51z" glyph-name="G" horiz-adv-x="1471" unicode="G"/>
<glyph d="M1494 40q0 -43 -224 -43t-224 41q0 26 22 47q60 57 68.5 83t8.5 234t-45 236.5t-292 28.5t-298 -36q-30 -21 -30 -239t11 -246t48.5 -67t37.5 -54q0 -31 -189 -31l-48 1h-48q-180 0 -180 50q0 24 60.5 55t75.5 78.5t15 496.5t-13.5 518.5t-57.5 94.5q-77 45 -77 58 q0 41 293 41q170 0 170 -36q0 -26 -24 -45q-59 -48 -68 -79t-9 -212.5t42.5 -208.5t294 -27t285 24t33.5 157l1 47l2 47q1 31 1 96.5t-32 107.5l-46 46q-27 28 -27 44q0 37 330 37q139 0 139 -40q0 -27 -40 -50q-77 -45 -87 -76t-10 -377l-7 -544q0 -129 31 -171 q13 -18 60 -44t47 -43z" glyph-name="H" horiz-adv-x="1608" unicode="H"/>
<glyph d="M568 1389q65 0 65 -32q0 -25 -53.5 -51t-69.5 -68t-16 -331v-45l1 -45v-45l-1 -22q-1 -23 -1 -46l-2 -45l-1 -46v-91l1 -69l2 -91l2 -45q1 -23 1 -44q0 -114 30 -153q16 -21 67.5 -39t51.5 -43q0 -42 -64 -42h-44l-23 1q-22 1 -45 1l-45 2q-22 1 -45 1l-89 -2 q-173 0 -173 35q0 27 59 54t72 63q26 72 26 364v45l-1 67v46l1 22q1 23 1 46l2 45q1 23 1 68l-1 45l-1 23l-1 68q0 181 -27 250q-16 40 -59 55q-77 27 -77 52q0 40 154 40l43 -1l22 -1h64l129 4h44z" glyph-name="I" horiz-adv-x="756" unicode="I"/>
<glyph d="M119 -61l88 -13q167 0 167 728l-2 127l-4 151q0 230 -27 294q-13 30 -69.5 64t-56.5 58q0 45 386 45h24q63 0 63 -41q0 -15 -44 -46t-53 -59.5t-9 -284.5l-5 -411q0 -247 -17 -365q-37 -257 -232 -370q-90 -52 -174 -52q-164 0 -164 78q0 41 34.5 69t94.5 28z" glyph-name="J" horiz-adv-x="811" unicode="J"/>
<glyph d="M482 409q0 -157 11 -211.5t48.5 -90.5t37.5 -64q0 -43 -288 -43q-169 0 -169 37q0 24 53.5 60t69.5 109t16 489t-13.5 486.5t-53.5 101.5q-72 56 -72 61q0 52 144 52h182q126 0 126 -47q0 -8 -30.5 -48.5t-42 -111t-11.5 -331.5q0 -90 47 -90q11 0 60 37q117 89 276 293 q89 114 89 194l-6 49q0 30 33 40t169 10t136 -33q0 -13 -144 -122q-72 -54 -218.5 -220t-146.5 -239q0 -51 355 -499q75 -94 120 -132q115 -96 115 -103q0 -44 -179 -44h-44q-89 0 -133 44q-15 15 -38.5 71.5t-93.5 164.5q-231 356 -318 356t-87 -226z" glyph-name="K" horiz-adv-x="1442" unicode="K"/>
<glyph d="M115 1360.5q0 34.5 83 34.5h59l30 -1l89 -1q182 0 219 -8.5t37 -38.5q0 -20 -60 -49.5t-71 -82.5q-23 -108 -23 -563t18 -486q26 -45 201.5 -45t234 28t115 116.5t79.5 88.5q37 0 37 -62q0 -216 -57 -264q-34 -29 -333 -29h-89l-30 1h-59q-480 0 -480 40q0 26 52.5 57 t70.5 93t18 394l4 421q0 219 -15 252t-72.5 51.5t-57.5 53z" glyph-name="L" horiz-adv-x="1213" unicode="L"/>
<glyph d="M1615 1377q121 0 121 -51l-22 -27q-45 -51 -55 -69q-29 -55 -29 -159q0 -685 33 -855q11 -56 45 -87q76 -68 76 -74l-21 -14q-54 -24 -196 -24t-171 35l-8 21l8 27q13 43 33 113t20 176q0 588 -34 676l-11 10q-13 0 -182 -382l-147 -341q-34 -82 -48 -112l-26 -55 q-53 -104 -98 -104q-37 0 -93 117q-16 34 -186.5 451.5t-201.5 417.5l-12 -14q-32 -75 -32 -636q0 -94 29.5 -224t29.5 -132l-15 -18q-35 -28 -132 -28t-134.5 11.5t-37.5 42.5q0 8 58.5 53.5t70.5 124.5l6 57q3 38 8 119l7 121q20 308 20 458t-26 205q-11 23 -56.5 69.5 t-45.5 58.5q0 39 160 39q99 0 152 -40q25 -19 76 -96t185 -390.5t153 -357.5l24 -53l26 -34q23 0 215 405.5t226 461.5t75.5 81.5t162.5 25.5z" glyph-name="M" horiz-adv-x="1902" unicode="M"/>
<glyph d="M492 56q0 -48 -99 -48h-135q-143 0 -143 32q0 24 60.5 60t75.5 95q26 104 26 495t-15.5 467t-60.5 115q-73 64 -73 66q0 44 73 44q118 0 177 -21.5t108.5 -70t375 -486.5t338.5 -438q32 0 32 377l2 96l-1 97q0 222 -14.5 271t-62.5 82t-48 68q0 29 147 29h48 q193 0 193 -33.5t-57.5 -77t-70.5 -130.5q-19 -129 -19 -417v-361q0 -48 1 -96l3 -96q0 -99 -14 -127t-56 -28q-63 0 -171 134q-47 58 -359.5 502.5t-349.5 444.5q-20 0 -20 -291l2 -247q0 -270 28 -373q9 -32 31 -65l19 -25q29 -37 29 -44z" glyph-name="N" horiz-adv-x="1592" unicode="N"/>
<glyph d="M729 66h34q188 0 298 169q108 170 108 431v19q0 289 -116 462t-311 173q-194 0 -310 -167q-47 -68 -78.5 -182.5t-31.5 -250.5v-18q0 -269 104 -439q53 -88 135 -142.5t168 -54.5zM1411 690q0 -146 -51 -286q-103 -281 -358 -384q-120 -48 -238 -48h-46q-263 0 -444 193 q-75 80 -125 216.5t-50 269.5v48q0 149 51 287q99 268 336 370q128 56 279 56h23q132 0 253 -52q242 -103 334 -402q36 -116 36 -244v-24z" glyph-name="O" horiz-adv-x="1533" unicode="O"/>
<glyph d="M470 1152v-380q0 -84 21.5 -102t90.5 -18h50q142 0 231.5 83t89.5 234v11l-1 11q0 146 -84 230t-222 84l-20 2h-48q-73 0 -90.5 -23t-17.5 -132zM470 362.5q0 -154.5 16.5 -195t77 -68t60.5 -55.5q0 -36 -131 -36l-26 1l-199 -1h-24q-129 0 -129 38t59 63.5t70 69t11 502 t-12 524t-53 83.5q-67 30 -67 49q0 32 28 41q44 14 202 14l105 4q106 4 107 4l54 2h82q121 0 213 -31q175 -59 228 -194q31 -79 31 -177q0 -214 -179 -324q-126 -78 -376 -97q-91 -7 -108 -23q-40 -39 -40 -193.5z" glyph-name="P" horiz-adv-x="1267" unicode="P"/>
<glyph d="M292 741v-56q0 -248 118 -417q64 -92 149 -138.5t161 -46.5h32q98 1 184 51q256 150 256 544v19q0 269 -124 452q-49 73 -134.5 123t-183.5 50h-19q-193 0 -311 -152q-63 -80 -95.5 -200t-32.5 -229zM1150 -34q0 -14 47.5 -50.5t198 -87t150.5 -61.5q0 -32 -47 -52.5 t-148 -20.5t-331 100q-551 239 -669 334t-195 252t-77 333v32q0 135 47 264q97 267 348 366q111 44 230 44h31q149 0 269 -60q244 -122 328 -373q34 -102 34 -280q0 -336 -147 -602q-69 -124 -69 -138z" glyph-name="Q" horiz-adv-x="1555" unicode="Q"/>
<glyph d="M454 1155v-345q0 -69 12.5 -86t71.5 -17h55l10 1l28 1q10 1 19 1q108 0 191 76.5t83 197.5v42q0 124 -82.5 199.5t-240.5 75.5h-28l-9 -1h-18q-20 -2 -27 -2q-42 0 -53.5 -25.5t-11.5 -117.5zM114 1350q0 34 133 34l34 1q34 1 62.5 1t74.5 2l69 3q104 3 139 3 q363 0 467 -214q32 -66 32 -165q0 -162 -154 -284q-92 -72 -92 -92q0 -32 38 -96q174 -294 222.5 -354.5t113.5 -85.5t65 -55q0 -16 -31.5 -34t-126 -18t-145.5 53q-18 19 -146.5 246t-159.5 256q-55 52 -169 52q-41 0 -59 -46t-18 -201t15.5 -193.5t64 -76t48.5 -49.5 q0 -34 -90 -34l-201 6q-187 0 -187 51q0 22 58.5 49t74 75.5t15.5 227.5v213l-1 35q-1 34 -1 69l-2 68q-1 34 -1 68l-6 201q0 134 -20 181q-12 28 -64 51t-52 52z" glyph-name="R" horiz-adv-x="1385" unicode="R"/>
<glyph d="M989 1155q0 -97 -42 -97t-89.5 86t-116 127t-176.5 41t-175 -56.5t-67 -157t92 -176.5q57 -48 251.5 -132t287.5 -180.5t93 -255.5t-131 -260t-332 -101h-37q-74 0 -156.5 19t-132 27.5t-72.5 18.5q-58 27 -58 158v34q0 134 61 134q27 0 72.5 -91t86.5 -124 q103 -82 238.5 -82t204 62.5t68.5 137t-21 120.5t-76 89.5t-247 131t-266 158.5q-109 105 -109 267t126 258t307 96q75 0 174 -19.5t146.5 -19.5t71.5 -31t24 -182z" glyph-name="S" horiz-adv-x="1150" unicode="S"/>
<glyph d="M380 46q0 23 67 57.5t82 113t15 516t-16.5 487.5t-121.5 50t-152 -26t-79 -76q-66 -102 -77 -102q-47 0 -47 58v30q0 205 47 229q18 9 522 9l411 -1q33 0 67 1l66 2q51 0 68 -25q27 -41 27 -206q0 -85 -27 -85q-37 0 -79 71.5t-90 98t-156 26.5t-127.5 -49t-19.5 -511.5 t11 -519.5t47 -87q11 -9 52.5 -29t41.5 -37q0 -43 -69 -43h-66l-196 4q-201 0 -201 44z" glyph-name="T" horiz-adv-x="1304" unicode="T"/>
<glyph d="M1187 861q0 258 -19 328.5t-58.5 113t-39.5 61.5q0 26 162.5 26t189.5 -15t27 -47q0 -16 -59 -53t-73 -84t-14 -397.5t-11 -430.5t-61.5 -166.5t-159 -147t-257.5 -60.5h-43q-313 0 -450 188q-57 77 -72 160.5t-15 453t-22 435.5q-11 34 -67 62q-55 28 -55 59 q0 45 181 45h115q166 0 166 -41q0 -9 -45 -50t-55 -99q-9 -51 -9 -325v-57v-49q0 -283 11 -362q42 -311 381 -311q215 0 307 207q45 101 45 537v19z" glyph-name="U" horiz-adv-x="1525" unicode="U"/>
<glyph d="M727 -4q-51 0 -76 28t-60.5 108t-203 540.5t-199 521.5t-65.5 83q-90 59 -90 62v21q0 29 223 29t223 -36q0 -24 -28 -59t-28 -72.5t49.5 -175t119.5 -346.5q142 -426 182 -426q6 0 73 149t209 582q48 146 48 197.5t-31 87.5l-34 31q-19 18 -19 30q0 43 213 43h34 q134 0 134 -48q0 -24 -78 -74q-47 -30 -81 -97t-170 -441t-215 -556t-130 -182z" glyph-name="V" horiz-adv-x="1424" unicode="V"/>
<glyph d="M210 1380q149 0 191 -38t42 -165t161 -619q44 -135 91 -135q30 0 61.5 51.5t79.5 218t48 352.5q0 43 -17 97l-16 40l-13 39q0 61 61.5 98t127 37t114.5 -28q81 -47 81 -94l-3 -39l-11 -37l-6 -38q0 -43 84 -317t106 -325.5t67 -51.5q37 0 75 117q161 492 161 594 q0 36 -7 86l-10 70q0 93 145 93q70 0 101.5 -21.5t31.5 -49t-35 -88.5l-28 -42q-43 -65 -55 -90l-21 -52q-26 -68 -127 -391.5t-144 -420.5t-82.5 -129.5t-68.5 -32.5q-68 0 -127 144q-24 59 -109 330.5t-109 330.5l-18 37q-20 0 -128 -321t-147 -402q-58 -121 -132 -121 l-32 10q-47 26 -78 91.5t-133 404.5t-136.5 431.5t-90 185.5t-55.5 115t28.5 48.5t81.5 26.5z" glyph-name="W" horiz-adv-x="2044" unicode="W"/>
<glyph d="M93 1340q0 44 248 44l127 3q95 0 95 -42q0 -12 -27 -41t-27 -42q0 -49 156 -278q69 -101 94 -101q15 0 101 115q150 201 150 272q0 13 -33 43t-33 39q0 42 147 42h42q195 0 195 -42q0 -27 -75.5 -62t-130.5 -103q-283 -349 -283 -437t335 -546q41 -56 84 -82 q98 -60 98 -75q0 -44 -291 -44h-82q-85 0 -85 40l11 19l13 20q16 27 16 51.5t-180 315.5q-62 101 -95 101q-15 0 -100 -119q-168 -237 -168 -308q0 -17 33.5 -44t33.5 -34q0 -42 -144 -42h-42q-200 0 -200 34q0 25 103 81q54 29 122 115q297 374 297 471q0 15 -36 73 q-187 300 -302 437q-38 45 -102.5 74t-64.5 52z" glyph-name="X" horiz-adv-x="1428" unicode="X"/>
<glyph d="M435 27q0 35 52.5 68t69.5 79t17 212.5t-87 329.5q-196 366 -250.5 442t-114 107.5t-59.5 64t70.5 44t244.5 11.5q114 0 114 -44q0 -9 -27 -40t-27 -43q0 -80 187 -404q66 -115 84 -115q42 0 214 344q50 100 50 164q0 22 -20 53.5t-20 48.5q0 46 209 46h32q120 0 120 -35 t-69 -78t-106 -98q-170 -253 -292 -539q-46 -108 -46 -423q0 -66 21.5 -92.5t71 -49.5t49.5 -48q0 -40 -110 -40l-188 5q-190 0 -190 30z" glyph-name="Y" horiz-adv-x="1340" unicode="Y"/>
<glyph d="M109 58q0 78 371.5 611t371.5 574.5t-158 41.5q-286 0 -371 -44q-38 -20 -82 -98t-78 -78q-43 0 -43 61q0 200 43 243q26 26 328 26h120l80 -1q40 -1 80 -1l79 -2q40 -1 119 -1q177 0 177 -46.5t-368.5 -616t-368.5 -604.5q0 -23 236 -23t326 35q56 22 93 88 q63 112 87 112q36 0 36 -56q0 -177 -48 -243q-31 -43 -196 -43h-233l-427 8q-117 0 -145.5 14.5t-28.5 42.5z" glyph-name="Z" horiz-adv-x="1273" unicode="Z"/>
<glyph d="M604 1464q0 -35 -105.5 -51.5t-123.5 -67.5q-25 -71 -25 -754t12 -732.5t35.5 -61t95 -19.5t88 -16t16.5 -41q0 -38 -111 -38h-151q-120 0 -142 40.5t-22 202.5v125l1 24v50l2 74v76l1 25v50l2 151v76l1 25v50q0 764 16.5 804t57 45.5t201.5 5.5l75 1q76 0 76 -44z" glyph-name="bracketleft" horiz-adv-x="672" unicode="["/>
<glyph d="M101 1464q51 0 99 -109q86 -196 225.5 -571.5t252.5 -657.5t113 -292q0 -31 -58 -31q-50 0 -119 160q-6 14 -142.5 365t-150.5 386l-69 178q-52 143 -130 338t-78 204q0 30 57 30z" glyph-name="backslash" horiz-adv-x="834" unicode="\"/>
<glyph d="M84 1472q0 36 84 36h74l24 -1q179 0 208.5 -29.5t29.5 -213.5v-99l-1 -25l-2 -124v-76l-1 -25v-50l-2 -151v-75l-1 -51v-410q0 -384 -11.5 -429t-45 -55.5t-194.5 -10.5h-122q-49 0 -49 27v18q0 37 98 50t116 34q37 42 37 242l1 24q1 24 1 56v294l1 25v50l1 76v75 q0 641 -23 702q-16 42 -119.5 55.5t-103.5 60.5z" glyph-name="bracketright" horiz-adv-x="676" unicode="]"/>
<glyph d="M529 1189q-1 0 -154 -220.5t-190 -220.5q-56 0 -56 28q0 33 322 527q41 63 80 63h13q35 0 134 -165q248 -413 248 -421q0 -29 -67 -29q-43 0 -180 219t-150 219z" glyph-name="asciicircum" horiz-adv-x="1052" unicode="^"/>
<glyph d="M1029 -143v-33q0 -41 -18 -46t-479 -5h-282l-33 -1h-97q-71 0 -71 42v11q0 52 18.5 57t477.5 5l339 1h75q70 0 70 -31z" glyph-name="underscore" horiz-adv-x="1081" unicode="_"/>
<glyph d="M130 1415v10q0 56 75 56h22q52 0 96 -57q187 -240 187 -273v-9q0 -25 -30 -25h-16q-34 0 -184 133t-150 165z" glyph-name="grave" horiz-adv-x="714" unicode="`"/>
<glyph d="M563 462q-130 0 -211 -63t-81 -137v-34q2 -12 2 -20q0 -48 42.5 -81t84.5 -33h32q66 0 149 58q60 42 60 106q2 12 2 18l2 26v31l1 19v69q0 44 -26 44h-25q-18 -3 -32 -3zM478 974h25q209 0 286 -127q47 -78 47 -362t8 -311q13 -45 57 -60q72 -25 72 -34v-15 q0 -20 -46 -47t-136 -27q-52 0 -94 45.5t-55 45.5q-1 0 -111 -51t-173 -51h-47q-96 0 -161.5 67.5t-65.5 146.5v25q0 126 95 202q65 52 187 86q14 4 110 24.5t117 30.5q55 27 55 117.5t-49 143t-134 52.5t-148 -93t-131 -93q-15 0 -38 22t-23 69q0 73 78 119q127 75 275 75z " glyph-name="a" unicode="a"/>
<glyph d="M357 358q0 -170 37 -216q56 -70 178 -70h33q38 0 90.5 29t84.5 83q66 112 66 274v12l-1 12q0 173 -66.5 275.5t-176.5 102.5h-10q-62 0 -123 -33.5t-86 -79t-25 -311.5l-1 -33v-45zM232 22q-78 0 -78 102q0 12 10 78.5t10 218.5v310l1 50v174l-1 49v49l-2 73q-1 24 -1 83 t-20 97q-10 19 -58 40.5t-48 43.5t24 34q60 31 195 31q67 0 82 -60q11 -43 11 -280.5t40 -237.5q6 0 99.5 34t179.5 34q167 0 269.5 -131t102.5 -314v-26q0 -105 -34 -200q-64 -179 -221 -248q-88 -39 -181 -39h-24q-45 0 -129.5 23t-147.5 23q-70 -11 -79 -11z" glyph-name="b" horiz-adv-x="1149" unicode="b"/>
<glyph d="M887 804q-1 -69 -29 -100q-20 -22 -45 -22q-11 0 -23 4q-40 13 -71 70q-66 118 -186.5 118t-185 -111t-64.5 -286.5t82 -279.5t235 -104q90 0 185 61q55 35 79 35t24 -20v-16q0 -50 -104.5 -110.5t-214.5 -60.5h-23q-214 0 -337 132t-123 344.5t118 351.5 q60 71 155.5 114t199.5 43h23q153 0 247 -58q58 -36 58 -105z" glyph-name="c" horiz-adv-x="973" unicode="c"/>
<glyph d="M515 88h31q46 0 100.5 28.5t84.5 72.5t30 240v208q0 123 -33 161q-64 74 -173 74h-21q-106 0 -182 -93.5t-76 -248.5l-2 -24v-61q0 -151 67 -254t174 -103zM772 1129.5q0 139.5 -17 171.5t-62.5 52.5t-45.5 45.5q0 14 13 24q51 39 191 39h23q69 0 81 -74q1 -6 1 -583 t8 -621t42 -68q70 -49 70 -53q0 -25 -22 -38q-54 -32 -131.5 -32t-96.5 16t-38 44t-23 28q-13 0 -57.5 -26.5t-99.5 -49.5t-139 -23h-25q-64 0 -136 35q-133 65 -185 217q-33 98 -33 208q0 233 128 373t352 140l24 -2l46 -6q54 -6 63 -6q54 0 64 33q5 16 5 155.5z" glyph-name="d" horiz-adv-x="1176" unicode="d"/>
<glyph d="M354 567h26l191 13q35 5 51 5q66 0 92 26q11 11 11 52q0 95 -55.5 157.5t-133.5 62.5h-20q-90 0 -160.5 -78t-70.5 -176l-2 -13v-6q0 -39 42 -39q20 -4 29 -4zM277 399q0 -139 89 -219t234 -80q60 0 158 45t101 45q35 0 35 -33q0 -62 -139 -130q-95 -46 -203 -46h-23 q-212 0 -332 132.5t-120 345.5v23v5q0 88 35 177q74 191 235 263q101 45 185 45h44q131 0 228 -84q52 -45 81 -114t29 -122v-21q0 -76 -62 -102q-36 -15 -261.5 -31t-253.5 -24q-60 -17 -60 -75z" glyph-name="e" horiz-adv-x="1015" unicode="e"/>
<glyph d="M442 -27h-27l-26 1q-289 0 -289 44q0 20 53.5 49t65 80t11.5 313t-12 299t-48.5 67t-36.5 50t35 70.5t52 105.5q64 218 114 284q104 138 303 138q90 0 141 -34t51 -75.5t-22 -70.5t-60.5 -29t-95 44.5t-108.5 44.5t-84 -79.5t-32 -163.5t41 -121q8 -8 82 -45.5t74 -60.5 t-79.5 -47t-97.5 -61q-28 -57 -28 -326.5t14 -312.5t71.5 -75t57.5 -55q0 -34 -120 -34z" glyph-name="f" horiz-adv-x="738" unicode="f"/>
<glyph d="M686 616l-2 41q0 107 -66 195q-47 63 -113 63h-34q-61 0 -114.5 -71t-53.5 -177v-44l1 -9q0 -92 42.5 -158.5t134.5 -66.5h24q71 0 125 49.5t54 122.5l1 7l1 8l1 31zM404 28q-77 0 -118 -38q-66 -61 -66 -137v-18l1 -8q0 -76 71.5 -131t186.5 -55h55q20 2 28 2 q118 0 199 68.5t81 147.5v8q0 66 -54 106.5t-143 40.5q-36 4 -54 4l-18 2l-108 6l-9 1l-35 1h-17zM639 970q14 0 94 -3l26 -1l50 -3q17 0 53 2l52 3q101 0 101 -43q0 -57 -79.5 -67.5t-79.5 -53.5l5 -22l15 -52q11 -46 11 -107q0 -57 -33 -119q-93 -179 -362 -191 q-113 -6 -138 -18q-47 -24 -47 -73t88 -68q24 -6 205 -18q180 -12 252 -44q136 -62 136 -212.5t-142 -247.5q-144 -97 -340 -97q-285 0 -382 128q-41 54 -41 126.5t69 149.5t69 94l-6 17l-35 38q-26 36 -26 81t43.5 106t43.5 81q1 18 -25 54q-84 116 -84 229q0 67 34 134 q101 199 403 199l28 -1q28 -1 42 -1z" glyph-name="g" horiz-adv-x="1085" unicode="g"/>
<glyph d="M109 52q0 18 44.5 62.5t53 101.5t8.5 497.5t-17 561.5q-8 56 -35 75q-71 50 -71 54q0 18 48 41t155 23q70 0 89 -49q14 -36 14 -163l-3 -110q-3 -111 -3 -149q0 -118 33 -118q6 0 114.5 42t184.5 42q162 0 234 -117q58 -96 58 -356l-1 -75l-1 -37l-1 -112 q0 -100 15 -125.5t57.5 -56t42.5 -42.5q0 -39 -144 -39l-35 -2l-106 -4q-90 0 -90 34q0 16 32.5 56t39.5 55.5t7 156.5l-2 73l1 113q0 226 -40.5 293t-124 67t-150 -37.5t-90.5 -93.5t-24 -299.5t12.5 -269.5t49.5 -57.5t37 -42.5q0 -42 -196 -42t-196 49z" glyph-name="h" horiz-adv-x="1216" unicode="h"/>
<glyph d="M184 1276v28q2 8 2 23.5t33 48.5t67 33l20 3h16q41 0 76.5 -29.5t35.5 -65.5l3 -24v-9l-4 -23q0 -30 -36.5 -60t-66.5 -30l-24 -3h-4l-4 1h-8q-8 2 -12 2q-29 0 -61.5 32.5t-32.5 72.5zM162 -7q-66 0 -66 40q0 26 52 49.5t64.5 68t12.5 311.5l1 31v31l1 31v62l-3 92 q0 80 -17.5 101t-68.5 35t-51 40q0 21 22 34q70 42 229 42q58 0 68 -41q5 -21 5 -381t11 -398.5t67.5 -61t56.5 -40.5v-11q0 -29 -87 -29q-30 -2 -44 -2l-45 -1h-44l-104 -3h-60z" glyph-name="i" horiz-adv-x="628" unicode="i"/>
<glyph d="M190 1282v24q0 51 42 81t84 30h8q12 -3 30 -3t52 -28.5t34 -63.5l3 -24v-4q0 -47 -36 -83t-91 -36h-8q-51 0 -84.5 33.5t-33.5 73.5zM421 783v-353q0 -501 -42.5 -609t-130 -176.5t-198.5 -68.5h-16q-84 0 -84 64q0 48 53 74q21 10 79 10t86.5 30.5t47 120t18.5 463.5 t-11 425.5t-50 73.5q-76 44 -76 55q0 22 17 33q60 39 217 39h18q48 0 60 -31t12 -150z" glyph-name="j" horiz-adv-x="585" unicode="j"/>
<glyph d="M708 912q0 36 108 36q196 0 196 -34q0 -21 -92.5 -79t-178.5 -149.5t-86 -144.5q0 -26 79.5 -119t142.5 -178.5t105 -115.5q97 -68 97 -84q0 -38 -125 -38h-36q-118 0 -158 38q-8 8 -24 46q-53 133 -153 257q-65 81 -112 81q-15 0 -39 -37.5t-24 -128t36 -149t36 -67.5 q0 -36 -270 -36q-100 0 -100 30q0 10 26 46q62 85 62 379l6 229q1 39 1 77l1 77v78l-1 116l-4 150q0 100 -15.5 124.5t-58.5 47.5t-43 40t31 31q80 37 210 37q57 0 75 -74q10 -40 10 -217l-3 -188l-1 -38q-1 -38 -1 -76l-2 -77v-73q0 -142 43.5 -142t156 112.5t112.5 162.5 q-7 42 -7 50z" glyph-name="k" horiz-adv-x="1139" unicode="k"/>
<glyph d="M210 747.5q0 484.5 -10.5 536.5t-55.5 72q-65 28 -65 48.5t25 32.5q81 39 237 39q59 0 67 -61q2 -14 2 -276l-1 -62v-83l-2 -82v-83q0 -594 7.5 -649.5t50.5 -82.5q79 -50 79 -57q0 -36 -140 -36l-40 -2l-183 -4h-42q-53 0 -53 29q0 23 49 52t58 82q17 102 17 586.5z" glyph-name="l" horiz-adv-x="612" unicode="l"/>
<glyph d="M820 444.5q0 234.5 -26 301.5q-34 89 -123.5 89t-157 -51.5t-89 -117t-21.5 -458.5q0 -62 34 -110t34 -62q0 -29 -135.5 -29t-192.5 23q-26 11 -26 37q0 6 35 43t49 70.5t14 169.5l-1 47l-4 94q-2 61 -2 167t-11 129.5t-42.5 55t-31.5 48.5l14 21q41 34 142 34 q59 0 98 -44.5t56 -44.5l30 15l75 46q95 53 179.5 53t129 -20t96.5 -64.5t75 -44.5l33 18l37 24q71 45 124.5 63t128 18t133 -36t89.5 -97q48 -96 48 -470q0 -159 9.5 -192t54.5 -70.5t45 -54.5q0 -40 -261 -40q-90 0 -90 25q0 11 26 61.5t26 118.5q0 433 -30 509.5 t-82 101.5q-32 15 -88 15t-114.5 -40.5t-75.5 -97.5t-17 -297.5t16 -268.5q5 -9 48 -38t43 -57q0 -38 -295 -38q-111 0 -111 29t30 55q63 54 69 90.5t6 271z" glyph-name="m" horiz-adv-x="1799" unicode="m"/>
<glyph d="M497 44q0 -37 -129 -37l-92 3q-30 1 -90 1q-93 0 -93 48q0 16 50.5 40t63 53.5t12.5 159.5v176l-2 62v113q0 82 -11.5 118.5t-55.5 60t-44 33.5q0 30 32 45q64 29 175 29q57 0 78 -44q34 -69 38 -69q3 0 43 28q139 100 251 101h31q178 -1 250 -155q36 -78 36 -459 q0 -186 13.5 -212t65 -50t51.5 -42q0 -42 -274 -42h-30q-88 0 -88 27t31 56t37.5 46t6.5 82t-1 96l-2 62v129q0 206 -41.5 276.5t-149.5 70.5q-54 0 -114 -31.5t-97 -83.5t-37 -264l-6 -188q0 -96 14 -132.5t46 -65.5t32 -41z" glyph-name="n" horiz-adv-x="1232" unicode="n"/>
<glyph d="M548 887h-21q-108 0 -183 -116q-59 -91 -59 -273v-12l1 -13q0 -276 148 -373q53 -34 119 -34l11 1q107 0 172 101t65 262v62q0 174 -71.5 284.5t-181.5 110.5zM1014 508v-50q0 -92 -38 -188q-73 -187 -253 -257q-87 -34 -167 -34h-16l-17 1q-188 0 -315 127 q-58 58 -91.5 155t-33.5 182v49q0 94 37.5 189t96 156.5t147.5 98t172 36.5h49q173 0 301 -128q55 -55 91.5 -148t36.5 -189z" glyph-name="o" horiz-adv-x="1112" unicode="o"/>
<glyph d="M387 383q0 -184 33 -228q56 -75 175 -75h21l11 1h3q49 0 98 29q146 86 146 371l-1 12q0 161 -63 268t-170 107h-21q-63 0 -122 -36t-84 -86t-25 -297l-1 -33v-33zM383 -165q0 -108 18.5 -138.5t66 -61.5t47.5 -51q0 -40 -157 -40h-51q-226 0 -226 47q0 15 46.5 51.5 t56.5 84.5q23 112 23 557t-13.5 490t-61.5 76t-48 51q0 11 16 22q55 39 181 39q41 0 59 -19.5t32 -45t26 -25.5q6 0 48 25t103.5 52.5t138.5 27.5h27q59 -1 128 -29q136 -56 194 -215q36 -98 36 -185v-56q0 -102 -39 -201q-75 -191 -246 -258q-78 -31 -177 -31l-161 12 q-35 0 -51 -35.5t-16 -143.5z" glyph-name="p" horiz-adv-x="1186" unicode="p"/>
<glyph d="M284 507v-38q0 -169 70 -274t181 -105h10q102 0 178 76q43 43 43 146v109l-1 11v22l-1 11v23q0 256 -21.5 301.5t-72 73.5t-107.5 28h-21q-54 0 -107 -31.5t-89 -91.5q-62 -105 -62 -261zM816 917l107 26q75 0 75 -104q0 -21 -14.5 -104t-14.5 -174l-1 -77v-204l-1 -51 v-51l-1 -51v-103l4 -204q0 -102 15.5 -129.5t54.5 -54.5t39 -43v-15q0 -37 -254 -37h-50q-131 0 -131 32q0 21 46.5 53.5t64.5 83t18 203.5t-38 153q-11 0 -95.5 -32t-167.5 -32t-159 36.5t-128 103.5q-98 127 -98 306v54q0 86 35 182q66 182 244 253q79 31 162 31 t178.5 -25.5t109.5 -25.5z" glyph-name="q" horiz-adv-x="1161" unicode="q"/>
<glyph d="M573 35q0 -36 -148 -36h-106l-42 2l-62 1q-119 0 -119 41q0 21 48 48.5t63.5 71.5t15.5 296.5t-15 304t-60.5 78.5t-45.5 49q0 9 15 20q58 43 206 43q60 0 81 -44q35 -73 43 -73q22 0 56 27q108 86 222 86q42 0 75 -34.5t33 -78t-23 -69t-56.5 -25.5t-76.5 28t-81 28 q-89 0 -143 -131q-32 -80 -32 -268t22 -230.5t76 -70.5t54 -64z" glyph-name="r" horiz-adv-x="878" unicode="r"/>
<glyph d="M806 273v-27q0 -49 -26 -102.5t-79 -90.5q-99 -70 -244 -70h-27q-188 0 -287 52q-47 25 -47 120v24q0 103 55 103q26 0 68 -70.5t72 -94.5q60 -48 157 -48t142.5 42t45.5 104.5t-62 110.5q-38 29 -186.5 92.5t-209 126t-60.5 170.5t93 182t236 74h27q186 0 259 -47 q33 -21 33 -102q0 -118 -59 -118q-20 0 -59 61t-80.5 90t-120 29t-122 -36t-43.5 -98t70 -110q40 -27 173.5 -81.5t196.5 -109.5q84 -73 84 -176z" glyph-name="s" horiz-adv-x="894" unicode="s"/>
<glyph d="M82 893q0 23 50.5 51t65 48.5t51 122.5t77 102t54.5 -32q6 -15 15 -81.5t33 -94t115 -48.5t91 -57.5t-99 -52t-116 -45.5q-32 -55 -32 -310.5t27.5 -319t84.5 -63.5q32 0 87.5 17.5t66.5 17.5q33 0 33 -39q0 -48 -106 -95q-61 -27 -128.5 -27t-123 31t-84.5 86 q-43 81 -43 343v83l-2 80q0 127 -19.5 174t-44.5 63q-53 33 -53 46z" glyph-name="t" horiz-adv-x="743" unicode="t"/>
<glyph d="M1124 51q0 -14 -35 -35.5t-117 -21.5t-105 16t-39.5 58t-30 42t-57.5 -32q-131 -95 -245 -95h-2h-30q-166 0 -239 138q-38 72 -38 370t-12.5 323.5t-65 43.5t-52.5 47l10 17q43 36 219 36q70 0 82 -65q18 -100 18 -367q0 -266 26 -322q46 -98 152 -98q60 0 123 31.5 t93.5 85.5t30.5 299.5t-9 280.5t-46 62q-38 27 -38 51q0 39 210 39q51 0 68.5 -18.5t17.5 -71.5l-1 -29l-4 -58l-5 -268q0 -274 14 -329.5t60.5 -79.5t46.5 -50z" glyph-name="u" horiz-adv-x="1203" unicode="u"/>
<glyph d="M419 911q0 -14 -23 -35t-23 -48.5t81.5 -266.5t104 -288.5t39.5 -49.5q8 0 51 91q167 351 167 481q0 33 -35 72.5t-35 50.5q0 36 179 36h24q122 0 122 -39q0 -30 -53 -63t-74 -72q-9 -16 -125 -303t-167.5 -388t-107 -101t-108.5 108t-135.5 345.5t-134.5 334.5 q-28 52 -82 81.5t-54 58.5q0 36 222 36l96 -2q71 0 71 -39z" glyph-name="v" horiz-adv-x="1096" unicode="v"/>
<glyph d="M1442 948q93 0 93 -33v-17q0 -2 -37 -63.5t-63.5 -123.5t-108 -313t-118 -315t-96.5 -64q-41 0 -84 79t-122.5 286.5t-99.5 207.5q-10 0 -106.5 -225.5t-115.5 -260.5q-43 -78 -85 -78q-57 0 -106 106q-28 60 -58 158q-109 355 -221 534q-33 52 -33 68q0 57 121.5 57 t154.5 -22t33 -81l-1 -26l-3 -29q0 -117 69 -309t110 -192q33 0 83 144.5t50 241.5q0 33 -11.5 86t-11.5 76t42.5 57.5t117 34.5t123.5 -58q25 -29 25 -83l-2 -30l-1 -30q0 -76 99 -339q33 -88 67 -88q43 0 106.5 183t63.5 287l-24 105q0 69 150 69z" glyph-name="w" horiz-adv-x="1611" unicode="w"/>
<glyph d="M72 905q0 47 254 47h62q69 0 69 -34q0 -11 -14 -29.5t-14 -30.5q0 -33 73 -132t83 -99q27 0 76 60q93 115 93 161q0 10 -15.5 32t-15.5 32q0 38 153.5 38t153.5 -43q0 -26 -64.5 -55t-102.5 -73q-191 -219 -191 -280.5t224 -324.5q42 -50 99 -84t57 -50q0 -38 -263 -38 q-133 0 -133 34q0 5 17 24t17 31q0 31 -80 142t-91 111q-26 0 -103 -97t-77 -150q0 -9 17.5 -35t17.5 -28q0 -39 -118 -39h-31q-170 0 -170 41q0 26 61 56t100 74q214 240 214 304.5t-203 303.5q-45 53 -100 84t-55 47z" glyph-name="x" horiz-adv-x="1105" unicode="x"/>
<glyph d="M89 878q0 63 225 63q88 0 88 -35q0 -10 -14 -36t-14 -39q0 -67 177 -513q30 -75 51 -75q12 0 58 96t96 253.5t50 202t-33.5 81.5t-33.5 52q0 28 118 28h64q121 0 121 -41q0 -20 -46 -70.5t-62.5 -85.5t-86 -228.5t-89.5 -247.5q-114 -311 -196 -455q-150 -266 -296 -266 q-55 0 -90.5 25.5t-35.5 50.5q0 75 66 75l117 -15q62 0 119 103t57 199q0 47 -188 451q-40 87 -66.5 150t-42.5 96.5t-64.5 97t-48.5 83.5z" glyph-name="y" horiz-adv-x="1104" unicode="y"/>
<glyph d="M97 43q0 41 263 411t263 384q0 24 -145 24t-187 -20.5t-82.5 -82t-64.5 -61.5q-37 0 -37 96t25 138q15 25 54 25l26 -2l138 -3l28 -1q28 -1 56 -1l113 -2h112q84 3 147 3t63 -39q0 -45 -263 -411.5t-263 -396.5q0 -13 160.5 -13t210 26t86.5 88.5t62 62.5q38 0 38 -53 v-26q0 -96 -23 -153q-16 -39 -75 -39h-27l-27 1q-27 1 -55 1l-194 5q-28 0 -56 1h-84l-56 -1l-28 -1l-84 -1q-94 0 -94 41z" glyph-name="z" horiz-adv-x="983" unicode="z"/>
<glyph d="M78 601q0 17 72.5 55t98.5 87t26 203l-4 102q-2 51 -2 100q0 190 68 272q34 41 97 65.5t136 24.5t73 -28t-74 -64.5t-98.5 -76t-24.5 -201.5l6 -201q0 -199 -98 -283q-14 -12 -47.5 -33t-33.5 -28q0 -1 29 -18q75 -44 110.5 -108.5t35.5 -226.5l-8 -224q0 -132 30.5 -174 t97 -70.5t66.5 -52.5q0 -39 -52 -39q-171 0 -244 80t-73 292l7 252q0 110 -29 158.5t-97 78.5t-68 58z" glyph-name="braceleft" horiz-adv-x="730" unicode="{"/>
<glyph d="M204 -254v392l1 20v198l1 19v218q0 851 5 886t47 35h19q40 0 50 -12t10 -110v-20l-1 -19v-79l-1 -39v-198l-1 -59v-718q0 -520 -5.5 -559t-46.5 -39h-19q-39 0 -49 12t-10 72z" glyph-name="bar" horiz-adv-x="535" unicode="|"/>
<glyph d="M98 1478.5q0 31.5 68.5 31.5t131 -22.5t97.5 -65.5q66 -83 66 -272l-9 -251q0 -126 30 -170.5t76 -67.5q90 -44 90 -57q0 -34 -72 -67t-97.5 -90.5t-25.5 -237.5l3 -176q0 -185 -72.5 -267.5t-238.5 -82.5q-53 0 -53 35q0 22 75 58.5t98 82t23 204.5l-3 74q-2 49 -2 147 q0 191 120 272l20 13q34 20 34 22.5t-53 40.5t-86.5 98.5t-33.5 204.5l11 276q0 106 -30 143t-98.5 65t-68.5 59.5z" glyph-name="braceright" horiz-adv-x="739" unicode="}"/>
<glyph d="M787 544h-32q-81 0 -208 63.5t-204 63.5t-144 -78q-29 -33 -48 -33q-39 0 -39 44q0 72 82 139.5t165 67.5h32q66 0 199 -63.5t195 -63.5t113 39q89 68 97 68q29 0 29 -34v-10q0 -65 -78 -134t-159 -69z" glyph-name="asciitilde" horiz-adv-x="1127" unicode="~"/>
<glyph glyph-name="uni00A0" horiz-adv-x="519" unicode=" "/>
<glyph d="M309 1153q45 0 81 -36t36 -76v-11q0 -49 -40 -77.5t-80 -28.5h-9l-4 1h-9q-8 2 -13 2q-36 0 -71.5 35.5t-35.5 61.5l-2 7v22q3 12 3 23.5t31 42.5t65 31l21 3h27zM342 543.5q0 -6.5 2 -29.5l7 -83q8 -96 8 -106l4 -46q3 -35 3 -47l3 -36q5 -60 6 -83t2 -40.5t1 -29.5 l5 -113v-22l1 -32v-21q0 -76 -17.5 -103.5t-71.5 -27.5h-19q-40 0 -56 25t-16 94v66l1 11v23l2 56l1 11l3 70q1 12 1 24l2 24q1 12 1 24l3 36q2 24 2 35l3 36q3 36 3 47l27 338q0 95 32 95h17q32 0 32 -83q3 -36 3 -47l3 -35q2 -24 2 -30.5z" glyph-name="exclamdown" horiz-adv-x="598" unicode="¡"/>
<glyph d="M532 912q0 10 -9 10h-5q-68 0 -160 -154q-57 -95 -57 -238v-21q0 -75 55 -185q83 -166 129 -166h5q5 0 5 41l-5 59q0 20 -7 65t-7 126l2 58l3 59l5 76q0 25 22 118.5t22 122.5l2 23v6zM491 -134q-15 0 -28.5 57t-23 69t-105.5 88q-207 163 -207 417v2v25q0 165 92 290 q51 69 102 100.5t97.5 51.5t72 44.5t43.5 89.5t46 65h15q17 0 47.5 -60t79.5 -99q117 -92 117 -175.5t-60 -83.5q-27 0 -61 60.5t-73 60.5t-53 -101q-26 -186 -26 -359.5t8 -196.5q15 -44 60.5 -44t107.5 28.5t83 28.5t21 -16q0 -50 -122.5 -121t-138.5 -93 q-93 -128 -94 -128z" glyph-name="cent" horiz-adv-x="1015" unicode="¢"/>
<glyph d="M768.5 1394q129.5 0 191.5 -41t62 -158q0 -76 -53 -76q-32 0 -58 33q-64 80 -72 86q-42 29 -120.5 29t-140.5 -80t-62 -211.5t29.5 -178.5t120.5 -68t91 -66q0 -25 -91.5 -55.5t-119.5 -79.5q-15 -26 -50.5 -168.5t-35.5 -151.5q0 -54 57 -75t167.5 -21t163.5 30t87 76 t70 46q47 0 47 -75q0 -113 -60 -170t-213 -57h-35q-34 0 -168 14.5t-181 14.5t-81 -3l-33 -4q-48 -6 -60 -6q-95 0 -95 41t65 111t83 122t18 155t-13.5 133.5t-59 59.5t-45.5 56t34 55t46.5 52.5t38.5 189t104 270.5q51 69 146.5 120t225 51z" glyph-name="sterling" horiz-adv-x="1170" unicode="£"/>
<glyph d="M832 673v26q0 107 -80 175t-164 68h-8l-9 -1q-103 0 -174 -66q-92 -85 -92 -213v-9l1 -8q0 -93 65 -171t165 -78h37q111 0 185 87.5t74 189.5zM790 987q22 0 75 47.5t68.5 47.5t38 -26t22.5 -44t-56 -74t-56 -74.5t20 -78.5t20 -118.5t-29 -150t-29 -102.5t59.5 -66.5 t59.5 -72.5t-22.5 -40.5t-39.5 -23.5t-74 51.5t-78 51.5q-1 0 -82 -31.5t-135.5 -31.5t-124.5 24t-85 24t-71 -50t-71.5 -50t-36 23t-20.5 48q0 6 53 65t53 84q0 4 -16.5 45t-24.5 74t-8 117t36 156q14 29 14 49.5t-52.5 78.5t-52.5 74.5t25.5 42t43.5 25.5t60.5 -48 t70.5 -48q10 0 53 17t78.5 27.5t94.5 10.5t136.5 -26.5t82.5 -26.5z" glyph-name="currency" horiz-adv-x="1130" unicode="¤"/>
<glyph d="M903 772q0 -36 42 -85.5t42 -65.5t-76 -46t-76 -70t92.5 -60t92.5 -48t-91 -52.5t-108.5 -44.5t-17.5 -80.5t34 -99.5q4 -5 43 -32t39 -45q0 -43 -111 -43h-44l-42 1l-84 1q-210 0 -210 31.5t63.5 65t63.5 97t-25 96t-107.5 56t-82.5 49t84 50t84 53.5q0 46 -70.5 78.5 t-70.5 57.5q0 14 33.5 54.5t33.5 101t-83.5 195.5t-123 181t-82.5 85.5t-43 50.5q0 31 48.5 45t236.5 14q124 0 124 -47q0 -14 -24.5 -46.5t-24.5 -45.5q0 -33 188 -371q53 -95 68 -95q34 0 88 92q163 276 163 339q0 31 -25.5 77.5t-25.5 67.5q0 32 169.5 32t169.5 -38 q0 -18 -72 -75t-122 -133q-160 -243 -160 -348z" glyph-name="yen" horiz-adv-x="1343" unicode="¥"/>
<glyph d="M272 729h-34q-39 0 -39 26l-3 59v363l-1 34v182q0 59 8.5 72.5t50.5 13.5h9q43 0 51.5 -11.5t8.5 -90.5v-35l-1 -9v-242q0 -320 -3 -336q-5 -26 -47 -26zM321 337v-611q0 -68 -41 -68h-35q-40 0 -45.5 19t-5.5 102v53l1 9v200q0 336 4 355.5t55 19.5h9q42 0 50 -12.5 t8 -66.5z" glyph-name="brokenbar" horiz-adv-x="521" unicode="¦"/>
<glyph d="M316 724v-28q0 -79 93 -180q5 -6 75.5 -57.5t92 -64.5t64 -48t51.5 -35h5q9 0 20 17q32 50 32 122v8l-1 7q0 67 -76 164q-205 261 -261 261h-5q-13 0 -51.5 -59.5t-38.5 -106.5zM436 -257q-275 0 -275 209q0 75 61 75q45 0 80 -54q59 -90 80 -103q38 -23 118 -23 t126.5 45.5t46.5 106.5t-61 121q-28 27 -163 114.5t-183 144.5q-82 96 -82 225q0 85 59 180q23 37 23 51.5t-16 43.5q-56 98 -56 169q0 136 98 225t277 89q117 0 183 -40t66 -139q0 -75 -58 -75q-44 0 -82.5 60.5t-59.5 76.5t-86.5 16t-109 -38t-43.5 -102.5t51 -114.5 t197.5 -136t210.5 -165t64 -174t-44.5 -187.5t-44.5 -101.5t22 -66t22 -124.5t-32.5 -126.5t-83.5 -99q-108 -83 -272 -83h-33z" glyph-name="section" horiz-adv-x="1063" unicode="§"/>
<glyph d="M233 1152h-18q-34 0 -67.5 27t-33.5 71v23q0 40 31 71t79 31h4q49 0 79 -30t30 -80v-4l-4 -28q0 -22 -29.5 -51.5t-70.5 -29.5zM724 1257l-4 -24q0 -23 -29 -52t-75 -29h-11l-3 1h-8q-6 2 -20.5 2t-43.5 29t-29 68v22q3 9 3 25.5t27.5 44t52.5 27.5q6 2 10 2l14 2h15 q41 0 71 -30t30 -73v-15z" glyph-name="dieresis" horiz-adv-x="857" unicode="¨"/>
<glyph d="M1371 660v40q0 112 -43 225q-83 218 -292 314q-110 50 -218 50h-20q-128 0 -245 -50q-237 -101 -326 -329q-41 -106 -41 -228q0 -260 163 -422q95 -95 207.5 -143t218.5 -48h39q102 0 208 45q216 92 303 317q46 118 46 229zM570 678q0 -153 70.5 -244.5t194.5 -91.5 q66 0 121 38q12 8 53.5 41.5t51.5 33.5q30 0 30 -31q0 -79 -83.5 -126t-208.5 -47h-21q-90 0 -165 37.5t-123 97.5q-93 116 -93 279v22q0 168 111 292q56 63 131 94t145 31h19q155 0 233 -34q46 -20 46 -107.5t-33 -87.5q-14 0 -95 85q-57 59 -145 59q-118 0 -184 -103 q-55 -85 -55 -238zM1495 710v-46q0 -142 -58 -268t-148.5 -213.5t-224 -139.5t-271.5 -52h-23q-136 1 -265 51q-273 107 -380 372q-47 118 -47 235v46q0 128 57.5 263t157.5 226t227.5 137.5t236.5 46.5h70q121 0 252.5 -54.5t219.5 -142.5t142 -215t54 -246z" glyph-name="copyright" horiz-adv-x="1606" unicode="©"/>
<glyph d="M237 866q0 -57 56 -57q8 -2 12 -2l22 -2h5q61 0 100 32.5t39 56.5l2 8v9l2 21v9l2 12v8l2 12v9l3 32v7q0 23 -12 23h-18l-24 -4q-72 0 -130.5 -48.5t-58.5 -86.5l-2 -9v-30zM370 1378h35q130 0 176.5 -70t46.5 -254t9.5 -211.5t48.5 -37t39 -28.5q0 -61 -131 -61 q-40 0 -69.5 33t-33.5 33t-80 -34t-133 -34h-17q-67 0 -117.5 41.5t-50.5 108.5v16q0 138 190 188q13 3 75 15t77 20q37 21 37 79t-36.5 87.5t-84 29.5t-89 -58t-89 -58t-47.5 58.5t56 88.5q90 48 188 48z" glyph-name="ordfeminine" horiz-adv-x="827" unicode="ª"/>
<glyph d="M477 911q45 0 45 -32t-133.5 -192t-133.5 -169t131.5 -175.5t131.5 -188.5q0 -38 -41 -38q-18 0 -213.5 183.5t-195.5 213.5q0 18 190 208t219 190zM842 131q-16 0 -202.5 175t-186.5 207.5t187 208t199 175.5h8q38 0 38 -38q0 -30 -122 -178.5t-122 -159.5t121 -166.5 t121 -189.5t-41 -34z" glyph-name="guillemotleft" horiz-adv-x="1027" unicode="«"/>
<glyph d="M923 407v48q0 135 -53 156q-23 9 -366 9t-352 1q-44 5 -44 44v13q0 57 31 60.5t440 3.5l291 2h93q45 0 63 -27.5t18 -88.5v-291q0 -51 -50 -51h-13q-56 0 -56 74q-2 26 -2 47z" glyph-name="logicalnot" horiz-adv-x="1168" unicode="¬"/>
<glyph d="M648 625q41 0 41 -53l-1 -7q0 -58 -28.5 -68.5t-269.5 -10.5h-21l-14 -1h-14l-21 -1h-14l-13 -1h-35l-14 -1h-41l-20 -1h-21q-47 0 -47 40v28q2 14 2 20q0 33 32.5 42t270.5 9l181 5h47z" glyph-name="uni00AD" horiz-adv-x="794" unicode="­"/>
<glyph d="M653 1104q-14 0 -14 -134l-2 -29v-19l1 -5v-25l1 -10v-20l2 -23q0 -24 21 -24q8 -2 11 -2l17 -1h4l22 2l19 2q50 0 90.5 35t40.5 87v5l-4 41q0 50 -41.5 85.5t-87.5 35.5l-9 2h-52q-18 -3 -19 -3zM716 263h55h5q93 0 184 39q202 85 280 271q43 103 43 196v35 q-1 102 -45 204q-83 192 -276 273q-107 45 -222 45h-19l-18 -1q-97 -1 -194 -41q-196 -82 -281 -283q-39 -93 -39 -182v-52q1 -99 45 -194q88 -187 278 -265q111 -45 204 -45zM760 1170q101 0 168 -49t67 -117q0 -106 -70 -164.5t-70 -67.5t67.5 -112.5t106.5 -132.5t39 -48 q0 -30 -88 -30q-45 0 -70 21.5t-85 127t-68 115.5q-28 34 -80 34q-40 0 -40 -132q0 -56 26 -97q28 -28 28 -49t-54 -21h-107q-114 0 -114 32q0 17 32.5 32t38.5 34.5t6 244.5t-5 263.5t-32 55.5t-27 26q0 33 201 33l36 1h94zM1383 821v-62q0 -93 -46 -203 q-98 -235 -338 -333q-126 -51 -238 -51h-42q-118 0 -239 49t-202 133q-174 180 -174 434l1 21v20q1 99 49 215q98 236 340 329q113 44 236 44h21q125 0 248 -50q240 -97 338 -334q46 -110 46 -212z" glyph-name="registered" horiz-adv-x="1500" unicode="®"/>
<glyph d="M752 1282v-15l-1 -8v-7q0 -41 -15.5 -45t-308.5 -4h-202l-23 -1h-44q-48 0 -48 38v23q0 43 12 50t57 7h8l7 -1l399 1h111q48 0 48 -38z" glyph-name="macron" horiz-adv-x="847" unicode="¯"/>
<glyph d="M347 1324q-47 0 -90.5 -49.5t-43.5 -114.5v-29q0 -57 41 -112t103 -55h21q53 0 95 48t42 99l2 11v24q0 63 -38 119.5t-90 56.5l-10 2h-32zM359 1399h26q95 0 171.5 -70t76.5 -167v-16l-1 -9q0 -108 -83 -178t-185 -70h-9q-97 0 -176.5 67.5t-79.5 169.5v34q0 93 79.5 166 t180.5 73z" glyph-name="degree" horiz-adv-x="741" unicode="°"/>
<glyph d="M915 190q80 0 80 -43v-20q0 -51 -27 -55.5t-428 -4.5h-278l-30 -1h-39q-80 0 -80 43v10l1 11q0 50 30 55q12 2 424 2l318 3h29zM534 1106h33q35 0 41 -30q4 -19 4 -159.5t20 -153.5q8 -5 168 -5t176 -6.5t16 -52.5t-23.5 -54t-177.5 -8t-166.5 -13.5t-12.5 -159 t-6.5 -159.5t-49.5 -14h-17q-37 0 -42 23.5t-5 163t-22 151.5q-9 5 -164 5t-163 2q-29 7 -29 40v17q0 50 31 58q16 4 169.5 4t165 14.5t11.5 161.5t7.5 161t35.5 14z" glyph-name="plusminus" horiz-adv-x="1108" unicode="±"/>
<glyph d="M373 1431h21q116 0 183.5 -58t67.5 -151.5t-69 -176.5q-40 -49 -161.5 -147.5t-121.5 -124.5q0 -16 96 -16t130 10t77.5 39.5t50.5 29.5q31 0 31 -68.5t-27.5 -97.5t-89.5 -29h-143l-20 1l-81 -1h-61q-138 0 -138 53q0 63 138.5 192.5t181.5 191t43 122.5t-33 97 t-93.5 36t-106 -70t-90.5 -70q-38 0 -38 68.5t74.5 119t178.5 50.5z" glyph-name="uni00B2" horiz-adv-x="807" unicode="²"/>
<glyph d="M397 1430q104 0 164.5 -48t60.5 -119t-48 -127q-16 -18 -47.5 -46.5t-31.5 -30.5l56 -30q119 -65 119 -178t-88.5 -178.5t-207 -65.5t-190.5 37q-71 37 -71 91v17q0 44 50 44q34 0 85.5 -49t114.5 -49t100 40t37 106q0 115 -134 147q-80 19 -80 39q0 31 52 52.5t86 54.5 q35 33 35 92q0 50 -29 76q-30 27 -76 27t-97 -51t-85 -51q-40 0 -40 60.5t72.5 100t170.5 39.5h22z" glyph-name="uni00B3" horiz-adv-x="796" unicode="³"/>
<glyph d="M253 1124h-16q-33 0 -33 29l1 4v5q0 57 186 270q51 58 108 58h5q84 0 84 -55v-16q0 -41 -127 -140q-199 -155 -208 -155z" glyph-name="acute" horiz-adv-x="721" unicode="´"/>
<glyph d="M393 336q0 -218 167 -218q88 0 156 52.5t91 110.5q49 122 49 604q0 41 33 41q66 0 110 -80q30 -55 30 -197t33 -269q62 -238 62 -257v-20q0 -87 -115 -87q-11 0 -118.5 32t-132 32t-106 -37t-145.5 -43.5t-85 -23.5q-49 -39 -49 -192q0 -75 -35 -123t-89 -48 q-38 0 -61 81.5t-23 215.5t11.5 338t11.5 319.5t-18 193t-18 79.5q0 53 43.5 91t108 38t85.5 -37q21 -38 21 -112z" glyph-name="mu" horiz-adv-x="1261" unicode="µ"/>
<glyph d="M660 131q0 -207 -108 -207q-71 0 -71 96l20 115q0 295 -79 453q-27 53 -127.5 129.5t-121.5 107.5q-58 85 -58 189q0 220 137 313q70 48 173 68.5t314 20.5l38 -1h77q187 0 187 -50q0 -17 -14 -39l-15 -20q-70 -96 -70 -236l-3 -115q-2 -77 -2 -195v-277l1 -40v-237 q0 -118 5 -153l14 -67q8 -41 8 -67q0 -71 -64.5 -71t-77.5 105q-3 27 -8.5 152t-28.5 394t-26.5 412t-7.5 158q-9 40 -59 40t-58 -32l-1 -33l1 -69q0 -103 12 -241t12 -246l3 -99l-1 -196q-1 -32 -1 -62z" glyph-name="paragraph" horiz-adv-x="1184" unicode="¶"/>
<glyph d="M272 496h-26q-42 0 -79 31t-37 74l-2 9v31q0 52 38 84.5t82 32.5h26q44 0 81 -31t37 -83v-31q0 -58 -41.5 -87.5t-78.5 -29.5z" glyph-name="periodcentered" horiz-adv-x="519" unicode="·"/>
<glyph d="M278 -134q0 58 37 118q14 23 53 23q32 0 32 -47.5t54 -69.5q120 -47 120 -145l-1 -9v-8q0 -79 -91 -137q-64 -41 -162 -41h-9l-9 1q-107 0 -107 41v8q0 39 72 39q144 0 144 93q0 44 -66.5 70.5t-66.5 63.5z" glyph-name="cedilla" horiz-adv-x="708" unicode="¸"/>
<glyph d="M453 637h-53l-13 1h-66q-181 0 -181 37q0 25 51.5 44.5t65.5 62.5q8 24 8 226.5t-12.5 233t-71 36t-58.5 31.5t39 44q161 73 219 73h12q37 0 37 -81l-6 -102l-2 -26v-27l-1 -26v-107l1 -40q0 -205 11 -238.5t58.5 -60.5t47.5 -43q0 -38 -86 -38z" glyph-name="uni00B9" horiz-adv-x="675" unicode="¹"/>
<glyph d="M245 1041l2 -39q0 -73 44 -142t105 -69h28q63 0 103 63t40 186v9l-1 8v8l-1 24l-3 38q0 75 -44.5 136t-112.5 61h-7q-56 0 -102.5 -51.5t-46.5 -133.5l-3 -31l-2 -42v-16zM735 1069v-23q0 -143 -90 -233t-237 -90h-11q-141 0 -225.5 90.5t-84.5 231.5v23q2 24 2 34 q0 117 92 203t207 86h45q132 0 217 -91t85 -231z" glyph-name="ordmasculine" horiz-adv-x="853" unicode="º"/>
<glyph d="M142 896h17q20 0 199.5 -179.5t179.5 -201.5t-180.5 -202.5t-202.5 -180.5q-43 0 -43 42q0 29 120.5 175.5t120.5 164.5q0 4 -122.5 161.5t-122.5 179.5v9q0 32 34 32zM923 514q0 -18 -188.5 -206.5t-223 -188.5t-34.5 34t131.5 191.5t131.5 169.5t-134 173t-134 181v8 q0 36 45 36q15 0 210.5 -184t195.5 -214z" glyph-name="guillemotright" horiz-adv-x="1025" unicode="»"/>
<glyph d="M967 307h95q104 0 113 16q4 7 4 98v106l1 5v10l1 15v15l1 5v10l1 15v10l1 14v10q0 12 -2 12h-1q-9 0 -61 -83t-111 -161.5t-59 -89.5v-3q0 -4 17 -4zM359 568h-144q-107 0 -107 43q0 14 49.5 36t61 65t11.5 252t-13.5 239.5t-66 35.5t-52.5 34q0 18 34 36q134 70 218 70 q47 0 47 -95l-4 -77q-2 -26 -2 -39l-2 -26v-53l-1 -27v-79l-1 -27q0 -210 11.5 -244t54 -66t42.5 -36v-8q0 -34 -136 -34zM366.5 -29q-49.5 0 -49.5 27q0 53 765 1285q52 84 102 84t50 -27q0 -52 -755 -1268q-63 -101 -112.5 -101zM860 256v22q0 17 30 62q148 222 293 390 q60 70 105 70t54 -36q4 -15 4 -187.5t13.5 -207.5t57.5 -55t44 -39v-8q0 -6 -55 -57q-29 -27 -29 -76q0 -14 16.5 -33.5t16.5 -43.5q0 -71 -187 -71q-100 0 -100 65q0 11 23 38t23 62t-26.5 47.5t-110.5 12.5q-172 0 -172 45z" glyph-name="onequarter" horiz-adv-x="1633" unicode="¼"/>
<glyph d="M180 572q-63 0 -63 36q0 21 51 44t64.5 59t13.5 244.5t-12 237.5t-67.5 37.5t-55.5 33t39 41.5q173 75 218 75t45 -85l-2 -26q-2 -26 -2 -38l-2 -26q-2 -26 -2 -39l-2 -68v-94l-1 -40q0 -211 11 -244.5t55 -62t44 -40.5q0 -29 -31.5 -36.5t-209.5 -7.5l-39 -1h-52z M382 -53h-17q-36 0 -36 20q0 25 51 107.5t371 633.5t324 557q75 118 123 118h17q36 0 36 -22t-51 -107t-63.5 -108.5t-90.5 -153t-122 -207.5t-70 -121t-134 -229t-126 -215t-46 -80t-43 -76q-73 -117 -123 -117zM1044 558q-43 0 -43 67t74 121.5t194.5 54.5t190.5 -56 t70 -148.5t-67 -179.5q-41 -53 -162.5 -155t-121.5 -123.5t113.5 -21.5t139.5 14.5t56.5 38.5t39.5 24q34 0 34 -34v-19q0 -97 -44 -129q-19 -14 -93 -14h-122l-20 1h-20q-185 0 -225 7.5t-40 43.5q0 61 133.5 185t183.5 194t50 134t-33 100t-94 36t-102 -59 q-57 -82 -92 -82z" glyph-name="onehalf" horiz-adv-x="1717" unicode="½"/>
<glyph d="M1260.5 649q-4.5 0 -22.5 -32t-116.5 -158.5t-98.5 -147.5q0 -4 12 -4h4l5 1l92 1q104 0 116.5 10t12.5 87l-2 24v10l-1 5v10l-1 9v14l-1 10v79l3 35v10l2 24q0 13 -4.5 13zM384 1380q95 0 154.5 -49t59.5 -115t-31 -106.5t-65 -72t-34 -33t52 -31.5t86.5 -75 t34.5 -130.5t-89.5 -157t-223.5 -71.5h-21q-85 0 -151 34t-66 77v16q0 55 59 55q10 0 81 -61q39 -34 101 -34t98 46t36 109q0 111 -132 154q-68 23 -68 44.5t52 45.5q114 53 114 145q0 47 -27.5 80t-71 33t-97.5 -49.5t-74 -49.5q-41 0 -41 54t60.5 98t162.5 44h41z M1274 1364q49 0 49 -24q0 -40 -771 -1282q-55 -88 -105 -88t-50 24q0 18 32 73q388 662 759 1239q37 58 86 58zM941 265v12q0 59 297 419q85 103 138 103h13q29 0 38 -36q3 -12 3 -187.5t13 -211t58 -53t45 -38.5q0 -15 -42.5 -52.5t-42.5 -88.5q0 -11 15.5 -32.5 t15.5 -43.5t-19 -37q-44 -35 -155 -35h-14q-101 0 -101 65q0 14 23 40.5t23 48.5q0 70 -78 70l-28 2l-43 1q-159 0 -159 54z" glyph-name="threequarters" horiz-adv-x="1714" unicode="¾"/>
<glyph d="M390 1064l2 19q0 29 39.5 62t77.5 33h23q54 0 88.5 -40t34.5 -85v-8q0 -38 -33 -84.5t-93 -46.5h-8q-58 0 -95 44t-37 93v9zM529 -251h-38q-176 0 -293 100q-93 79 -93 207v19q0 177 185 337q135 116 144 128q33 42 33 127.5t52 85.5q66 0 66 -185q0 -66 -51 -147 q-17 -27 -86.5 -102t-98.5 -129.5t-29 -130t47.5 -121t131 -45.5t129.5 51q81 90 118 90q69 0 69 -90t-60 -133q-87 -62 -226 -62z" glyph-name="questiondown" horiz-adv-x="940" unicode="¿"/>
<glyph d="M755 580q93 0 93 13v6q0 43 -177 485q-27 67 -30 67q-8 0 -22 -42.5t-46.5 -124t-44.5 -120.5t-17.5 -52t-12 -34t-30 -82.5t-23.5 -95.5q0 -14 24 -14l16 -2l122 -4h148zM495 1804q43 0 106 -56q197 -175 197 -230v-9q0 -29 -37 -29q-10 2 -16 2q-37 0 -250 142 q-103 69 -103 109v15q0 54 77 54l10 2h16zM10 47q0 26 57.5 58.5t83.5 87.5q11 24 56.5 147.5t143 358t119 299t50 162.5t43.5 130q41 84 127 84q97 0 195 -287q73 -217 159.5 -434.5t121.5 -316.5t61.5 -153t70.5 -80q77 -44 77 -70q0 -35 -102 -35h-149q-146 0 -177 12 t-31 35.5t38 55.5t38 64.5t-47.5 147.5t-74.5 138t-228.5 23t-240.5 -35q-24 -22 -64 -118t-40 -149.5t47.5 -84t47.5 -43.5q0 -36 -110 -36q-272 0 -272 39z" glyph-name="Agrave" horiz-adv-x="1430" unicode="À"/>
<glyph d="M843 581v18q0 8 -165 503q-18 53 -24 53t-37 -70q-178 -407 -178 -503q0 -13 28 -13h7l8 1l63 4l9 1l8 1l138 3q143 0 143 2zM581 1502v9q0 22 22.5 45.5t28 30.5t19 22.5t20 24t24 28t36 44.5t33.5 38q73 65 122 65h22q31 0 60.5 -23t29.5 -47v-16q0 -40 -48 -74 q-257 -180 -327 -180l-6 1q-36 0 -36 32zM28 72.5q0 17.5 60 57t87 101.5t46 115l47 137q18 48 116 299t134.5 367t51.5 149q38 81 122 81q63 0 146 -177q8 -16 184 -494.5t193.5 -515t60.5 -62.5q75 -44 75 -72q0 -38 -185 -38l-59 -2h-59q-141 0 -141 28.5t36.5 59 t36.5 65t-45.5 139.5t-73.5 130.5t-221 25.5t-229 -33q-24 -22 -63.5 -124.5t-39.5 -143t45 -71t45 -43.5q0 -29 -78 -29q-212 0 -268 23q-24 10 -24 27.5z" glyph-name="Aacute" horiz-adv-x="1431" unicode="Á"/>
<glyph d="M583 585h16l8 1h42q198 0 198 17q0 51 -168 471q-30 75 -33.5 75t-39.5 -82q-168 -384 -168 -464v-6q0 -12 145 -12zM965 1468h-15q-37 0 -147.5 85t-112.5 85q-11 0 -111.5 -85t-146.5 -85t-46 28v6q0 4 53 66.5t58 67.5t35 41q105 126 152 126h16q37 0 168 -141.5 t131 -163.5q0 -30 -34 -30zM17 55q0 18 76 68q46 30 79 105q4 10 100 274l112 288q86 222 135 370t61 166q38 59 111 59t162 -206q23 -53 69 -185t122.5 -332.5t112 -308.5t61.5 -162.5t67 -77.5q78 -44 78 -71q0 -40 -249 -40l-30 -1q-178 0 -178 33q0 28 39 59t39 67 t-45 144.5t-74 134.5t-225.5 26t-232.5 -35q-21 -21 -62 -124t-41 -147t47 -76t47 -46q0 -31 -110 -31q-194 0 -232.5 15.5t-38.5 33.5z" glyph-name="Acircumflex" horiz-adv-x="1433" unicode="Â"/>
<glyph d="M519 584h115l9 1h16q190 0 190 18q0 48 -172 478q-26 66 -31.5 66t-106 -251t-100.5 -293q0 -19 80 -19zM565 1739h15q39 0 135 -45t132 -45t56 14t48 39.5t36 25.5q38 0 38 -28v-8q0 -60 -65 -119.5t-119 -59.5h-32q-47 0 -136 44.5t-132.5 44.5t-91 -39.5t-56.5 -39.5 q-31 0 -31 28v7q0 64 90 140q48 41 113 41zM10 51q0 18 75 65q42 26 70 89t66 168q37 105 136.5 347.5t154.5 410t66 185.5q37 59 114 59q70 0 152 -181q13 -29 76 -204.5t188.5 -498.5t132.5 -334q23 -38 78.5 -63t55.5 -60t-131 -35h-120q-208 0 -208 38q0 31 38 63 t38 66.5t-45 145t-76 137.5t-231.5 27t-232 -30t-71.5 -132.5t-40 -147t48 -78t48 -45.5q0 -35 -110 -35q-272 0 -272 43z" glyph-name="Atilde" horiz-adv-x="1427" unicode="Ã"/>
<glyph d="M438 596v-6q0 -14 150 -14h8l8 1h41q191 0 191 14v6q0 69 -167 486q-27 67 -29 67q-9 0 -22 -39t-55 -150.5t-55 -154t-41.5 -113.5t-28.5 -97zM490 1522q-32 0 -64.5 26t-32.5 60l-3 22v7q0 45 31.5 76.5t70.5 31.5h22q40 0 70 -30t30 -74v-11q0 -45 -30 -75t-58 -30 l-21 -3h-15zM989 1612l-2 -18q0 -25 -29.5 -54.5t-76.5 -29.5h-4q-40 0 -73.5 27t-33.5 76v15q0 43 31.5 74.5t67.5 31.5h21q39 0 67.5 -28.5t28.5 -53.5q2 -6 2 -10l2 -15v-11zM8 48q0 24 56 54.5t80 80.5t72 182t142 361t114.5 288.5t53.5 167t47 130.5q37 60 115.5 60 t163.5 -205q8 -18 55 -150.5t172.5 -462.5t149 -379t83.5 -83t60 -60q0 -36 -188 -36h-30q-240 0 -240 38q0 32 38 64t38 66t-45 144t-75.5 137.5t-232.5 27.5t-233.5 -30t-70.5 -135t-39 -147t48 -74t48 -47q0 -34 -111 -34q-271 0 -271 42z" glyph-name="Adieresis" horiz-adv-x="1430" unicode="Ä"/>
<glyph d="M560 1634v-8l1 -3v-8l2 -13q0 -25 28 -53t56 -28l18 -3h19q31 0 63.5 26t32.5 59l3 21v7q0 42 -31.5 73.5t-81.5 31.5l-4 -1q-39 0 -72.5 -26.5t-33.5 -74.5zM799 554q27 0 27 10v6q0 6 -18 58l-22 69l-16 56q-5 16 -26.5 89.5t-45.5 124.5t-40.5 109t-20.5 58t-101 -272 t-97 -299q0 -9 20 -9h46l8 1l173 2h17l73 -3h23zM678 1441h-19q-79 0 -132.5 53.5t-53.5 130.5v6q0 77 58.5 129t132.5 52h20q72 0 128.5 -50.5t56.5 -120.5v-25q0 -76 -61.5 -125.5t-129.5 -49.5zM309 -1q-296 0 -296 51q0 17 59.5 62t88.5 109q2 4 58 158t152.5 399 t132 363.5t47.5 142.5q40 78 127 78q73 0 163 -199q19 -41 177.5 -487.5t182 -496.5t67.5 -75q76 -44 76 -71q0 -40 -220 -40h-61l-110 3q-61 0 -61 29.5t39.5 58.5t39.5 74t-48 151.5t-70.5 129t-208.5 22.5t-219 -17t-67 -92q-66 -146 -66 -207q0 -34 46 -70t46 -46 q0 -30 -75 -30z" glyph-name="Aring" horiz-adv-x="1432" unicode="Å"/>
<glyph d="M912 799l-3 75v50l12 193v16l1 16v7q0 59 -10 59h-5q-34 0 -96 -124q-3 -6 -7.5 -16t-9.5 -18.5t-8 -14.5t-21 -33t-74 -139.5t-66 -127.5q-70 -105 -70 -114t54 -9h35q9 1 39 1l66 -2l50 -4h8l8 1h15q59 0 70 22q11 23 11 79v65zM924 311q0 220 -157 220 q-204 0 -278 -69q-52 -48 -101 -148.5t-49 -147.5q0 -12 20.5 -55.5t20.5 -61.5q0 -41 -170.5 -41t-170.5 44q0 26 32 56l36 27q46 35 83.5 85.5t208.5 366.5t199 363l28 47q38 64 53 90l25 45q31 61 31 137t65.5 93.5t247.5 17.5l209 -2l109 3h55q167 0 237 -41t70 -134 q0 -63 -18 -63q-8 0 -62 34q-149 93 -333 93q-106 0 -143.5 -67t-37.5 -261q0 -76 44 -115t115.5 -39t133 39t77.5 39l26 -13q34 -34 34 -145.5t-30 -140.5l-27 -14q-18 0 -82 40.5t-126 40.5q-100 0 -140 -68q-22 -37 -22 -115t23 -161.5t57.5 -125t153.5 -41.5 q196 0 339 104q49 35 60 35q22 0 22 -24v-32q0 -124 -107 -178q-48 -24 -232 -24h-55l-55 1h-54q-260 0 -344 16t-84 71l8 27l35 64q20 46 20 128z" glyph-name="AE" horiz-adv-x="1942" unicode="Æ"/>
<glyph d="M96 623q0 129 42 260q81 254 298 361q126 62 251 62h33q102 0 194 -33.5t104 -34.5q103 -11 116 -16q71 -29 71 -143t-55 -114q-45 0 -125 76t-112 94q-93 52 -201 52q-202 0 -311.5 -155.5t-109.5 -409.5t124 -405q108 -129 293 -129q230 0 382 130q62 54 93.5 54 t31.5 -21v-25q0 -41 -34.5 -96t-82.5 -81q-177 -97 -338 -99q7 -12 34 -37q37 -34 49 -50q59 -83 59 -141v-15l-1 -6q0 -48 -83.5 -98t-171.5 -50l-10 1q-76 0 -76 26v6q0 69 41 69q10 -2 16 -2h2q110 0 110 99q0 54 -44 94t-44 56q0 11 24 52q-109 10 -195 43 q-120 47 -205 142t-127 225t-42 259z" glyph-name="Ccedilla" horiz-adv-x="1356" unicode="Ç"/>
<glyph d="M351 1744v19q0 18 23.5 38.5t67.5 20.5h5q50 0 121 -63q192 -171 192 -226v-5q0 -30 -30 -30h-16q-54 0 -267 149q-96 67 -96 97zM843 874q66 0 66 -122.5t-14.5 -168t-59.5 -45.5q-4 0 -62.5 51.5t-106.5 51.5q-147 0 -192 -57q-25 -32 -25 -150q0 -196 59 -293 q26 -43 173 -43q271 0 391 120q54 54 61 54q24 0 24 -83.5t-52 -149.5q-34 -43 -129 -43l-43 1l-523 3l-43 -1q-43 -1 -126 -1q-126 0 -126 53q0 2 68 55q38 30 51 91.5t13 512.5t-15 498t-70 71t-55 59.5t122 35.5l42 -1q43 -1 86 -1l303 1l173 2l85 2q98 0 141.5 -36 t43.5 -156q0 -60 -20.5 -60t-67 43.5t-80.5 57.5q-117 47 -252 47t-172 -57q-57 -88 -57 -281q0 -88 52.5 -122t120 -34t101 18t67.5 47.5t48 29.5z" glyph-name="Egrave" horiz-adv-x="1272" unicode="È"/>
<glyph d="M928 1766v-9l-1 -5q0 -45 -117 -127q-209 -146 -235 -146h-5q-45 0 -45 37v4q0 65 208 250q53 47 98 47h6q91 0 91 -51zM849 885q67 0 67 -165.5t-44 -165.5q-38 0 -89.5 52.5t-109.5 52.5q-143 0 -186 -56q-23 -30 -23 -146q0 -209 54 -288q30 -43 180 -43 q266 0 367 111q53 58 65 58q19 0 19 -75t-25 -122.5t-55.5 -67t-276.5 -19.5h-87l-44 1h-88q-351 0 -380 3q-88 9 -88 54q0 3 72 53q40 28 51.5 86t11.5 511t-15 497t-67.5 70t-52.5 55q0 42 283 42l387 3l87 1q134 0 183.5 -39.5t49.5 -150.5q0 -57 -19 -57q-12 0 -62 41 q-109 90 -337 90q-114 0 -150 -57q-57 -91 -57 -272q0 -59 30 -95q47 -56 151 -56q55 0 82 15t62 47t54 32z" glyph-name="Eacute" horiz-adv-x="1272" unicode="É"/>
<glyph d="M385 1496h-14q-33 0 -33 30q0 10 69.5 85.5t79.5 87.5q99 117 147 117h16q47 0 147 -118q146 -173 146 -174q0 -28 -41 -28h-7q-30 0 -138 83t-116.5 83t-116.5 -83t-139 -83zM701.5 106q154.5 0 263.5 43q55 22 105.5 75t68 53t17.5 -33v-33q0 -117 -44.5 -168.5 t-141.5 -51.5l-43 1l-87 -1h-265q-356 0 -386 3q-86 9 -86 56q0 5 74 54q36 24 48.5 88t12.5 496t-11.5 494.5t-47.5 86.5q-79 52 -79 70q0 31 77 39q38 4 385 4l174 1h130q144 0 182 -37q53 -52 53 -159q0 -56 -21 -56q-14 1 -56 39q-104 94 -331 94q-131 0 -168 -57 q-59 -91 -59 -276q0 -61 31 -95q51 -56 154 -56q59 0 94 21l26 20l24 25q32 28 56.5 28t46 -38.5t21.5 -135.5q0 -160 -45 -160q-39 0 -91 53t-111 53q-148 0 -188 -56q-22 -31 -22 -149q0 -214 55 -292q30 -43 184.5 -43z" glyph-name="Ecircumflex" horiz-adv-x="1272" unicode="Ê"/>
<glyph d="M453 1527h-29q-12 3 -26 3t-40.5 26.5t-26.5 52.5l-3 18v22q0 39 29.5 68.5t57.5 29.5l22 3h11q12 -3 29.5 -3t44 -26.5t26.5 -52.5l3 -19v-26q-2 -6 -2 -10q0 -27 -29.5 -56.5t-66.5 -29.5zM790 1530q-14 0 -43 29t-29 78v4q0 47 29.5 76.5t57.5 29.5l18 3h22 q12 -3 18 -3q29 0 54.5 -32t25.5 -75l-1 -4q0 -48 -29 -77t-57 -29l-18 -3h-22q-12 3 -26 3zM835 871q67 0 67 -122t-14.5 -168t-59.5 -46q-4 0 -77 64q-44 39 -142 39t-142 -57q-25 -32 -25 -150q0 -195 59 -292q27 -44 129 -44q316 0 431 117q57 58 65 58q24 0 24 -62 q0 -109 -52 -172q-35 -43 -130 -43l-43 1l-479 4l-212 -3q-127 0 -127 53q0 2 69 55q38 29 51 90.5t13 513.5t-14.5 498.5t-70 70.5t-55.5 59t466 35l302 3l43 1q98 0 141.5 -36t43.5 -156q0 -59 -21.5 -59t-67.5 46q-101 101 -349 101q-119 0 -154 -56q-57 -91 -57 -282 q0 -89 53.5 -122.5t119 -33.5t98 17t68 47.5t49.5 30.5z" glyph-name="Edieresis" horiz-adv-x="1272" unicode="Ë"/>
<glyph d="M78 1749v15q0 19 25.5 39t60.5 20h16q45 0 116 -63q194 -172 194 -221v-15q0 -25 -30 -25h-15q-46 0 -265 146q-102 68 -102 104zM625 1348q0 -30 -61.5 -58t-75.5 -83.5t-14 -530.5t13.5 -524t62.5 -67q82 -30 82 -52q0 -43 -79 -43h-22l-22 1l-65 1h-128l-86 -2h-44 q-73 0 -73 33.5t62 58.5t76 82t14 521.5t-12 523.5t-63 78q-82 30 -82 53q0 33 40 39q19 3 255 3l86 1h86q50 0 50 -35z" glyph-name="Igrave" horiz-adv-x="755" unicode="Ì"/>
<glyph d="M256 1508v14q0 14 68 100q155 199 241 199h1l5 -1q31 0 58 -21t27 -48v-10q0 -37 -108 -113q-216 -151 -249 -151h-15q-28 0 -28 31zM480 704v-44l-1 -45v-157l1 -44v-44l1 -22q1 -22 1 -92t19 -105t77.5 -53t58.5 -44q0 -43 -83 -43h-22l-23 1l-66 1h-87l-133 -2h-44 q-77 0 -77 47q0 18 54 41t67 44q28 46 28 196l2 44l1 43v45l1 22v132l1 110q0 407 -13.5 472t-64.5 86q-78 32 -78 53q0 31 42 38q13 2 239 2l132 2h44q75 0 75 -49q0 -15 -60 -42t-72 -75q-20 -78 -20 -518z" glyph-name="Iacute" horiz-adv-x="755" unicode="Í"/>
<glyph d="M114 1498h-14q-32 0 -32 30q0 15 47 62t91 99q109 129 158 129h15q37 0 164.5 -138.5t127.5 -154.5q0 -27 -41 -27h-8q-30 0 -137.5 83t-114.5 83t-115 -83t-141 -83zM636 1348q0 -30 -61 -56t-77 -89.5t-16 -530.5t15.5 -517.5t64.5 -68.5q79 -29 79 -52q0 -43 -84 -43 h-45l-22 1l-45 1h-88l-111 -2h-67q-77 0 -77 33.5t55.5 55.5t69.5 46q27 44 27 221l2 44v44l1 45v245q0 439 -16 491.5t-63 71.5q-79 33 -79 53q0 32 43 39q13 2 242 2l110 2h68q74 0 74 -36z" glyph-name="Icircumflex" horiz-adv-x="757" unicode="Î"/>
<glyph d="M182 1527h-26q-37 0 -66.5 29.5t-29.5 73.5v15q0 42 31 73t67 31h29l22 -4q20 0 45.5 -25.5t25.5 -51.5q2 -8 2 -11l2 -19v-3q0 -46 -31 -77t-71 -31zM550 1527q-41 0 -71 30t-30 73v15l4 25q0 22 26.5 48.5t48.5 26.5l29 5h11q45 0 75 -30t30 -73v-15l-4 -25 q0 -22 -27.5 -49.5t-54.5 -27.5l-22 -3h-15zM549 1381q71 0 71 -34t-63 -60t-75.5 -95.5t-12.5 -521.5t12 -510t64 -77q83 -30 83 -52q0 -43 -80 -43h-43l-22 1l-43 1h-86l-107 -2h-65q-73 0 -73 33t55.5 57.5t67.5 43.5q24 40 24 198l2 45v44l2 67v268q0 404 -12 462.5 t-63 77.5q-81 30 -81 54q0 33 39 39q12 2 234 2l107 2h65z" glyph-name="Idieresis" horiz-adv-x="753" unicode="Ï"/>
<glyph d="M643 1295h-58q-80 0 -95 -35t-15 -229.5t13 -224.5q19 -45 130 -45t134.5 -10.5t23.5 -58.5q0 -37 -128.5 -47t-152.5 -44.5t-24 -257.5l-1 -60v-38q0 -101 27 -131t110 -30h39q219 0 341 133q153 165 153 409v86q0 266 -126 418q-68 82 -156.5 123.5t-214.5 41.5z M114 35q0 34 60.5 58.5t76.5 69t16 199.5l3 82q1 28 1 101.5t-16.5 87t-81.5 22t-65 54t57 53.5q82 12 89 18q17 14 17 115l-2 54l-1 54q0 166 -18.5 217.5t-61.5 69.5q-72 30 -72 52q0 34 111 34l131 3l79 3q53 2 81 2l54 2h83q530 0 687 -388q51 -126 51 -285 q0 -347 -200.5 -532t-530.5 -185h-113l-27 1l-263 4q-145 0 -145 34z" glyph-name="Eth" horiz-adv-x="1526" unicode="Ð"/>
<glyph d="M646 1755h23q49 0 137 -44t132.5 -44t95.5 39.5t57 39.5q32 0 32 -27v-8q0 -60 -64.5 -119.5t-121.5 -59.5h-33q-50 0 -139 44.5t-133 44.5t-92.5 -40.5t-57.5 -40.5q-33 0 -33 28v15q0 57 84 128q52 44 113 44zM487 41q0 -43 -169 -43h-94q-130 0 -130 41q0 13 79 62 q49 30 62 109t13 485.5t-15 467t-74.5 105.5t-59.5 67q0 36 108.5 36t165.5 -16.5t104.5 -67.5t154.5 -198t333 -437.5t229 -290.5q23 0 23 374t-15 439.5t-74 104.5t-59 53q0 41 133 41l48 -1h48q170 0 170 -44q0 -15 -71 -71q-45 -35 -58.5 -102t-13.5 -476l-1 -49 q-1 -49 -1 -98l-1 -50v-196l1 -96l2 -48q0 -128 -51 -128q-83 0 -176 116q-64 80 -374 518t-338.5 438t-28.5 -264l3 -245q0 -223 19 -313.5t46 -130.5l21 -26l22 -22q19 -22 19 -44z" glyph-name="Ntilde" horiz-adv-x="1581" unicode="Ñ"/>
<glyph d="M316 761v-36q0 -133 34 -252q67 -238 219 -321q85 -47 176 -47h36q165 0 276 146q51 67 81.5 175.5t30.5 219.5v55q0 135 -34 255q-62 220 -205 307q-91 55 -191 55h-35q-83 0 -158 -42q-150 -83 -198 -275q-32 -128 -32 -240zM824 1459h-10q-63 0 -262 139 q-113 79 -113 129v6q0 28 29.5 51t63.5 23h18q42 0 101 -46.5t175 -194.5q34 -44 34 -59v-15q0 -33 -36 -33zM1400 680q0 -150 -50 -286q-102 -279 -356 -382q-115 -46 -238 -46h-46q-126 0 -240 50q-229 100 -321 346q-55 150 -55 283v47q0 140 47 278q89 259 318 369 q131 62 274 62h47q126 0 248 -50q242 -100 329 -382q43 -139 43 -266v-23z" glyph-name="Ograve" horiz-adv-x="1533" unicode="Ò"/>
<glyph d="M315 753v-73q1 -116 33 -232q65 -231 225 -308q77 -37 161 -37h18q188 0 308 166q44 61 77.5 171t33.5 232v74q0 116 -33 234q-58 206 -196 288q-86 51 -172 51h-53q-77 -1 -156 -43q-147 -79 -210 -283q-36 -115 -36 -240zM618 1496v11q0 13 52 87.5t131 144.5t129 70 h11l6 -1q33 0 60 -21t27 -46v-11l-1 -5q0 -50 -155 -158.5t-216 -108.5h-5q-39 0 -39 38zM1398 697v-23q0 -146 -50 -283q-98 -267 -340 -371q-122 -52 -257 -52h-47q-122 0 -235 50q-236 105 -327 370q-46 135 -46 263v47q0 144 49 278q98 267 339 372q117 51 255 51h23 q289 0 464 -194q73 -80 122.5 -216t49.5 -292z" glyph-name="Oacute" horiz-adv-x="1531" unicode="Ó"/>
<glyph d="M1179 666v73q0 112 -38 230q-73 225 -218 303q-90 48 -177 48h-18q-90 0 -168 -40q-161 -83 -222 -303q-32 -114 -32 -221v-18q0 -290 125 -461q56 -77 136.5 -120t171.5 -43h18q184 0 300 146q58 72 90 186.5t32 219.5zM1002 1468h-14q-26 0 -134.5 75t-113.5 75 t-48 -30q-171 -119 -214.5 -119t-43.5 33q0 8 124.5 155.5t176.5 147.5h17q43 0 166 -145.5t123 -159.5v-6q0 -26 -39 -26zM1401 681v-6q0 -146 -49 -279q-96 -264 -338 -374q-118 -55 -268 -55q-295 0 -477 193q-86 92 -131 233.5t-45 274.5v23v6q0 150 49 283 q98 267 332 369q126 55 254 55h46q140 0 256 -54q228 -105 321 -359q50 -137 50 -287v-23z" glyph-name="Ocircumflex" horiz-adv-x="1535" unicode="Ô"/>
<glyph d="M308 758v-54q0 -126 36 -242q71 -225 219 -305q86 -46 177 -46h18q189 0 308 162q51 70 81.5 181t30.5 233v18q0 130 -34 250q-65 231 -221 315q-84 45 -177 45h-18q-188 0 -300 -147q-57 -73 -88.5 -186t-31.5 -224zM608 1742h24q50 0 139 -44.5t131.5 -44.5t88.5 34.5 t49 34.5q38 0 38 -31v-8q0 -74 -70.5 -134t-137.5 -60l-8 1q-53 0 -147.5 44.5t-135 44.5t-90.5 -34.5t-57 -34.5q-32 0 -32 38q0 64 85 142q56 52 123 52zM1400 682q0 -140 -48 -281q-92 -270 -338 -378q-126 -55 -258 -55h-23q-278 0 -450 178q-87 90 -138 229.5 t-51 272.5v47q0 150 50 285q98 266 334 370q122 53 255 53h47q131 0 246.5 -49t194 -136t129 -225t50.5 -287v-24z" glyph-name="Otilde" horiz-adv-x="1533" unicode="Õ"/>
<glyph d="M313 774v-73q0 -127 31 -237q63 -223 199 -309q86 -54 170 -54h34q189 0 298 158t109 424l-1 19v5q0 257 -105 433q-44 76 -127.5 127.5t-184.5 51.5h-17q-185 0 -292 -149q-52 -72 -83 -181.5t-31 -214.5zM448 1628v22l4 21q0 21 29 50t69 29h22q40 0 67.5 -27.5 t27.5 -51.5q4 -14 4 -18v-26q0 -38 -29 -67t-55 -29q-6 -2 -10 -2l-19 -2h-3l-29 4q-27 0 -52.5 30.5t-25.5 66.5zM1042 1586q0 -36 -32 -68t-68 -32h-24q-12 3 -29.5 3t-50.5 33t-33 81v17q0 56 37 86.5t62 30.5l21 3h16q39 0 70 -31t31 -69l2 -8v-34q-2 -8 -2 -12z M1397 679q0 -130 -44.5 -270.5t-133.5 -238.5t-211.5 -151.5t-254.5 -53.5h-23q-290 0 -465 193q-75 83 -125 219.5t-50 290.5l1 24v23q0 129 49 263q97 265 335 369q122 53 255 53h47q141 0 254.5 -52.5t189 -136t126 -221.5t50.5 -288v-23z" glyph-name="Odieresis" horiz-adv-x="1533" unicode="Ö"/>
<glyph d="M150 901q0 18 27 44t46.5 26t158 -138.5t150.5 -138.5t146.5 139.5t153.5 139.5t45.5 -25.5t26.5 -45.5t-139 -154t-139 -147.5t142 -150.5t142 -153.5t-27.5 -43t-44 -26.5t-160 138.5t-147.5 138.5q-14 0 -152.5 -138.5t-155 -138.5t-43.5 25t-27 44t139 153t139 148.5 t-140.5 150t-140.5 153.5z" glyph-name="multiply" horiz-adv-x="1070" unicode="×"/>
<glyph d="M324 645q0 -132 40.5 -259.5t79.5 -127.5q30 0 286 409.5t256 507.5v12q0 47 -67.5 85t-161.5 38h-14q-183 0 -294 -153q-57 -80 -90 -191.5t-33 -216.5l-2 -30v-74zM1129 809v55q0 150 -37 233q-8 19 -14 19h-7q-7 0 -137 -250t-189 -344q-204 -326 -204 -363t44 -64 t123.5 -27t159.5 52q151 99 226 390q35 135 35 299zM1196.5 1426q28.5 0 43.5 -35q5 -11 5 -79.5t65.5 -232.5t65.5 -333v-27q0 -150 -51 -294.5t-146 -241.5q-197 -201 -504 -201l-187 13q-39 0 -103.5 -31.5t-82.5 -31.5q-49 0 -49 54l7 71q0 34 -71 226t-71 357t52 309 q101 281 364 390q123 51 299 51l185 -16q35 0 92.5 26t86 26z" glyph-name="Oslash" horiz-adv-x="1543" unicode="Ø"/>
<glyph d="M474 1747v15q0 19 26.5 39t59.5 20h16q46 0 120 -66q190 -169 190 -222l-1 -5v-5q0 -26 -34 -26h-11q-45 0 -264 146q-102 68 -102 104zM1170 845q0 237 -16.5 304.5t-34.5 93.5t-46.5 53t-28.5 34q0 49 149 49h78q110 0 138 -13t28 -43q0 -19 -61.5 -54.5t-74.5 -78.5 t-13 -382t-12 -435.5t-56 -174.5q-124 -222 -452.5 -222t-465.5 188q-54 75 -72 167t-18 458t-22 427q-12 33 -69.5 63.5t-57.5 54.5q0 45 140 45h115l38 -1q185 0 185 -38q0 -18 -45.5 -49.5t-59 -77t-13.5 -256.5l2 -121l1 -40v-81l-1 -80q0 -169 16 -263 q49 -286 370 -286q224 0 311 195q48 108 48 564z" glyph-name="Ugrave" horiz-adv-x="1529" unicode="Ù"/>
<glyph d="M664 1522v13q0 21 146.5 151t175.5 130h11l23 -3q56 0 56 -59v-16q0 -44 -98 -113q-187 -131 -273 -131h-6q-35 0 -35 28zM1163 754q0 338 -17 406.5t-32.5 91t-45.5 52.5t-30 37q0 43 112 43h78q148 0 177 -14t29 -39.5t-58.5 -59t-72.5 -79t-14 -366.5q0 -322 -12 -428 q-27 -237 -216 -340q-119 -65 -265 -65h-43q-343 0 -473 213q-50 82 -62 188.5t-12 438.5t-15 373.5t-70.5 72t-55.5 56.5q0 35 56.5 41.5t240.5 6.5l78 1q107 0 107 -36q0 -16 -43.5 -46.5t-55.5 -71.5t-12 -335v-118q-1 -39 -1 -158q0 -273 77 -379q93 -126 307.5 -126 t300.5 202q43 100 43 438z" glyph-name="Uacute" horiz-adv-x="1529" unicode="Ú"/>
<glyph d="M772 1817h16q37 0 164.5 -139t127.5 -153q0 -28 -42 -28l-7 1h-7q-25 0 -132 82.5t-113.5 82.5t-58.5 -40q-164 -126 -197 -126h-7q-39 0 -39 24v7q0 10 128 149.5t167 139.5zM1165 722.5q0 355.5 -19 434t-63.5 131.5t-44.5 65q0 28 168.5 28t201 -14t32.5 -41.5 t-60 -60.5t-73 -74.5t-13 -211.5v-231l-1 -41q-1 -41 -1 -157q0 -259 -87 -386q-61 -91 -169.5 -141t-232.5 -50h-44q-350 0 -482 210q-47 75 -60.5 172t-13.5 451t-15 397t-72.5 73.5t-57.5 53.5q0 38 64 46q38 5 230 5l118 1q74 0 74 -34q0 -18 -44.5 -49t-56 -71 t-11.5 -152v-151l1 -40q1 -40 1 -80l-2 -80l-1 -120q0 -276 76 -385q52 -74 131 -101q78 -27 182 -27q194 0 283 161q62 114 62 469.5z" glyph-name="Ucircumflex" horiz-adv-x="1529" unicode="Û"/>
<glyph d="M534 1530q-14 0 -41 27t-27 56l-3 22v7q0 40 28.5 74t73.5 34h22q46 0 73 -33.5t27 -74.5v-7q0 -46 -29.5 -75.5t-58.5 -29.5l-21 -3h-12l-3 1h-7q-8 2 -22 2zM1077 1652v-23q0 -40 -31 -71t-76 -31h-11l-4 1h-7q-8 2 -11 2q-25 0 -54 29t-29 68v22q0 40 29.5 69.5 t59.5 29.5q8 2 11 2l15 1l4 -1h3q42 0 71.5 -29.5t29.5 -68.5zM784 82q333 0 367 355q10 103 10 380.5t-17.5 340.5t-64 119t-46.5 57q0 42 165 42h39q190 0 190 -40.5t-61.5 -70.5t-74 -88t-12.5 -367v-55q0 -265 -9 -367q-21 -246 -224 -354q-115 -61 -280 -61t-285 45 t-194 152q-53 77 -68.5 169.5t-15.5 436.5t-12 402.5t-58 84.5q-79 44 -79 78.5t149 34.5h115q208 0 208 -45q0 -11 -41 -40.5t-56.5 -62.5t-15.5 -250l2 -122l1 -39v-161q0 -323 67 -430q40 -64 117.5 -104t183.5 -40z" glyph-name="Udieresis" horiz-adv-x="1529" unicode="Ü"/>
<glyph d="M573 1503v14q0 7 80.5 110t139 148.5t94.5 45.5t63.5 -24t27.5 -43v-10l-1 -5q0 -30 -107 -98q-256 -163 -262 -163q-35 0 -35 25zM312 1384q162 0 162 -46q0 -11 -28 -40t-28 -40q0 -67 188 -397q66 -116 87 -116q32 0 148.5 205t116.5 273q0 33 -28.5 71.5t-28.5 47.5 q0 45 227 45h66q91 0 91 -32.5t-67.5 -71t-111.5 -101.5q-147 -208 -285 -500q-47 -99 -47 -298t17.5 -232.5t72 -58.5t54.5 -50q0 -36 -91 -36h-33l-99 3l-130 -1q-173 0 -173 38q0 20 53 51.5t71.5 73.5t18.5 222.5t-97 350.5q-216 381 -258 439t-104 92t-62 63t33.5 37 t264.5 8z" glyph-name="Yacute" horiz-adv-x="1327" unicode="Ý"/>
<glyph d="M925 708v46q0 143 -81.5 224.5t-205.5 81.5h-18q-119 0 -131 -48q-2 -8 -2 -152v-155l-3 -52v-20l-5 -110v-39q0 -51 24 -64q43 -23 104 -23h18l8 1q128 0 210 88t82 222zM1177 729v-4q0 -79 -37 -157q-98 -210 -445 -234q-137 -10 -153 -18q-38 -19 -38 -78.5 t15.5 -82.5t61.5 -48t46 -47q0 -42 -120 -42h-129l-26 1h-51l-51 -1q-115 0 -115 35t54.5 63t66.5 74q22 83 22 518.5t-22 514.5q-11 40 -51 58q-73 33 -73 53q0 32 34 39.5t249 7.5l51 1h50q102 0 102 -42q0 -22 -42 -47t-52 -47q-10 -23 -10 -42q0 -24 17 -41 q11 -11 208 -32t277 -74q161 -107 161 -297v-2v-29z" glyph-name="Thorn" horiz-adv-x="1285" unicode="Þ"/>
<glyph d="M829 -5q-228 0 -228 139q0 78 68 78q16 0 62.5 -43t80.5 -43q74 0 119 47t45 120.5t-68 146.5q-32 34 -108 89q-156 113 -157 226q0 91 91.5 212.5t91.5 200.5t-48.5 129.5t-121.5 50.5q-154 0 -210 -168q-31 -93 -31 -485v-180l-2 -88q-2 -87 -2 -130t4 -120l3 -38 q5 -52 5 -69q0 -52 -50 -71q-30 -11 -151 -11t-121 40q0 13 44 60t55 96t11 230t-6.5 246t-26.5 125t-20 87t67 259q97 335 435 335q143 0 241 -78q51 -40 80 -98.5t29 -109.5q0 -93 -73 -181q-112 -136 -112 -192.5t104 -140.5q158 -127 190 -173q58 -84 58 -208.5 t-101.5 -207t-246.5 -82.5z" glyph-name="germandbls" horiz-adv-x="1255" unicode="ß"/>
<glyph d="M552 467q-131 0 -207 -59t-76 -133v-27q0 -58 39 -102t107 -44h19q91 0 165 66q46 41 46 117v121q0 64 -35 64h-25q-18 -3 -33 -3zM576 1077h-11q-34 0 -183.5 133t-149.5 171l1 5q0 55 75 55h22q55 0 94 -50q188 -242 188 -279v-9q0 -26 -36 -26zM971 73v-15 q0 -20 -44 -47t-137 -27q-50 0 -93.5 45.5t-53 45.5t-49.5 -20t-107 -51t-171 -31t-169 69t-65 181t84 181.5t221 102.5q210 50 221 58q38 27 38 113t-48.5 138t-116.5 52t-101.5 -24t-75.5 -93t-90 -69q-91 0 -91 90q0 82 98 132q123 63 255 63h26q190 0 273 -108 q62 -81 62 -317l-4 -214q0 -142 16 -175t50 -45q72 -25 72 -35z" glyph-name="agrave" unicode="à"/>
<glyph d="M565 476q-130 0 -225 -74q-69 -54 -69 -155v-14q0 -49 33 -91.5t97 -42.5h20q98 0 161 56.5t63 123.5q2 14 2 20l1 13v13l1 19v39l1 26v6q0 64 -34 64h-19q-18 -3 -32 -3zM386 1106v10q0 44 185 282q41 53 104 53h11q36 0 61.5 -20t25.5 -38v-10q0 -32 -111 -143 q-164 -164 -231 -164h-10q-35 0 -35 30zM478 956h26q197 0 278 -125q52 -81 52 -363t17 -317t70 -48.5t53 -42.5q0 -13 -17 -28q-50 -43 -164 -43q-50 0 -95.5 45.5t-51 45.5t-114.5 -50.5t-173 -50.5h-47q-99 0 -166.5 67.5t-67.5 165.5v25q0 110 109 187q82 58 236 87 l47 8q86 17 109 27q57 25 57 114t-45 141t-128.5 52t-141.5 -91t-126 -91q-18 0 -40 21t-22 67q0 77 104 137t241 60z" glyph-name="aacute" unicode="á"/>
<glyph d="M265 252v-13q2 -14 2 -20q0 -42 40.5 -78t94.5 -36h19q116 0 191 84q36 41 36 166v19l1 19q0 77 -33 77h-25l-6 -1l-53 -5q-123 0 -207 -75q-60 -53 -60 -137zM483 1444h16q40 0 87 -56q196 -232 196 -280q0 -29 -44 -29h-7q-30 0 -132.5 94.5t-107.5 94.5t-112.5 -91 t-126.5 -91q-41 0 -41 27q0 8 71 107t86 123q65 101 115 101zM476 964h26q203 0 282 -125q52 -81 52 -366t18 -322t71 -48t53 -42q0 -21 -46 -47t-136 -26q-47 0 -94.5 45.5t-55 45.5t-116.5 -50.5t-207 -50.5t-173 62q-75 60 -75 180q0 212 304 286q217 52 222 55 q40 26 40 110.5t-47.5 137t-131.5 52.5t-144 -92.5t-128 -92.5q-17 0 -39.5 21.5t-22.5 69.5q0 79 105.5 138t242.5 59z" glyph-name="acircumflex" unicode="â"/>
<glyph d="M264 256v-6q0 -58 38.5 -101.5t99.5 -43.5h26q71 0 143.5 51t72.5 114q2 14 2 19l1 12v13l1 6v24l1 19q0 110 -33 110h-25l-39 -4q-126 0 -207 -63t-81 -150zM360 1351h24q39 0 132.5 -44t131.5 -44t90.5 39.5t56.5 39.5q30 0 30 -28v-8q0 -58 -65 -117.5t-126 -59.5h-24 q-47 0 -135 44t-128 44t-92 -40t-57 -40q-31 0 -31 28v8q0 55 67 116.5t126 61.5zM500 971q206 0 287 -126q47 -72 47 -364t15.5 -326.5t68.5 -47.5t53 -44q0 -22 -32 -41q-60 -35 -148 -35q-50 0 -94 45.5t-51 45.5t-117 -51t-212.5 -51t-168.5 68t-66 177.5t71 176 t209 105.5q24 7 122 28t122 37q40 26 40 112t-49.5 139t-134 53t-145.5 -93t-132 -93q-17 0 -40 21.5t-23 68.5q0 78 108.5 136.5t269.5 58.5z" glyph-name="atilde" unicode="ã"/>
<glyph d="M570 470q-137 0 -220.5 -65t-83.5 -148v-20q0 -55 35.5 -95.5t96.5 -40.5h19q74 0 146.5 51t72.5 112l2 12l2 25v13l1 12v25l1 19v56q0 46 -23 46h-30q-14 -2 -19 -2zM349.5 1361q15.5 0 43.5 -28t28 -64v-30q0 -36 -30.5 -66.5t-68.5 -30.5h-26q-12 3 -26 3t-40.5 26.5 t-26.5 51.5q-2 6 -2 10l-2 19v7l4 25q0 22 27.5 49.5t54.5 27.5l18 3h22q9 -3 24.5 -3zM790 1231l-2 -18q0 -25 -29 -54t-77 -29h-4l-3 1h-8l-14 2q-25 0 -53 28t-28 67v22q0 40 28.5 68.5t55.5 28.5l18 3h18q12 -3 28 -3t42 -26t26 -54l3 -22v-11zM500 968q209 0 288 -126 q47 -76 47 -365.5t15.5 -324.5t68.5 -48t53 -44q0 -21 -44.5 -48.5t-112.5 -27.5t-99 27q-8 7 -32.5 36t-37.5 29t-56.5 -22t-74.5 -37q-95 -44 -197.5 -44t-168.5 68t-66 184q0 203 303 282q220 57 221 58q40 27 40 112.5t-49.5 138.5t-134 53t-145.5 -93t-132 -93 q-17 0 -40 21.5t-23 68.5q0 79 108 137t269 58z" glyph-name="adieresis" unicode="ä"/>
<glyph d="M605 1275v25q-3 12 -3 27.5t-32 41t-48 25.5l-18 3h-23q-9 -3 -23.5 -3t-41.5 -27t-27 -49l-3 -17v-26q3 -12 3 -28.5t31 -41t49 -24.5l3 -1l4 -1l25 -1q44 0 74 30t30 67zM642 435q0 35 -43 35h-7l-6 -1q-122 0 -214 -46t-92 -127l-1 -6l-1 -7l-1 -27q0 -66 35 -116 t97 -50h30q102 0 169 86q31 40 31 172v13l3 45v29zM694 1303v-32q0 -62 -54.5 -116.5t-116.5 -54.5l-13 -2h-33q-65 0 -123 51.5t-58 128.5v19q0 69 55.5 124.5t135.5 55.5h26q12 -2 19 -2q63 0 112.5 -56t49.5 -116zM477 969h26q204 0 282 -126q52 -84 52 -367.5 t17.5 -319.5t71 -47.5t53.5 -42.5q0 -20 -46.5 -46.5t-135.5 -26.5q-48 0 -95.5 45.5t-53.5 45.5t-115 -50.5t-208 -50.5t-174 61.5t-75 182t85 186.5t219 98q216 52 221 55q41 27 41 111t-48.5 136.5t-132.5 52.5t-142 -92.5t-128 -92.5q-17 0 -39.5 21.5t-22.5 68.5 q0 82 108 140t240 58z" glyph-name="aring" unicode="å"/>
<glyph d="M616 479q-42 -6 -57 -6l-28 -4q-21 -3 -27 -3q-76 0 -168 -61q-51 -34 -51 -101v-38q0 -64 31 -99.5t112 -35.5h14q74 0 155 44t81 95v24l-1 6l-2 25l-1 6v48l1 13q0 87 -27 87h-32zM815 597v-13q0 -41 69 -41h43l7 1l121 7l7 1l38 3q18 3 31 3q101 0 101 64v19 q-3 18 -3 32q0 66 -52.5 125t-126.5 59h-19q-96 0 -156 -77.5t-60 -182.5zM847 406q0 -131 71 -213t196 -82q77 0 182.5 45.5t106.5 45.5q28 0 28 -29q0 -64 -116 -123q-115 -59 -223 -59q-179 0 -300 91q-69 53 -87 53t-79 -45q-131 -97 -264.5 -97t-206 63.5t-72.5 180.5 q0 199 279 271q37 10 118 24t109 28q55 28 55 88q0 103 -41 163t-114.5 60t-110 -26t-71.5 -89.5t-83 -63.5q-80 0 -80 81t102 136.5t214 55.5t183 -28q4 -2 56.5 -29t67.5 -27t122.5 44t185.5 44h35q142 0 242 -100t100 -239q0 -76 -39.5 -97.5t-253 -34t-245.5 -19.5 q-67 -15 -67 -73z" glyph-name="ae" horiz-adv-x="1566" unicode="æ"/>
<glyph d="M477 -430h-40q-74 0 -74 48q0 65 36 65q43 0 75 36t32 91l2 14q0 18 -27.5 59.5t-27.5 50.5q0 5 5 14q-232 26 -324 251q-36 89 -37 175v23q0 85 27 176t85 157.5t137 101.5t158 35h21q160 0 255 -57q52 -31 52 -106q0 -111 -58 -111q-46 0 -86 62.5t-80 83t-110 20.5 q-105 0 -165 -90.5t-60 -250t74.5 -252.5t209.5 -93q86 0 154.5 40t74.5 40q48 0 48 -41q0 -57 -106 -112q-86 -44 -169 -53q23 -25 61 -67q94 -102 94 -119v-8q0 -61 -64 -111q-92 -72 -173 -72z" glyph-name="ccedilla" horiz-adv-x="983" unicode="ç"/>
<glyph d="M380 573h40l7 1l221 10q6 1 11 1q71 0 71 47v33q-3 21 -3 33q0 80 -62.5 135.5t-133.5 55.5h-14q-93 0 -159 -74.5t-66 -169.5l-2 -14v-13q0 -39 46 -39q36 -6 44 -6zM260 1383v10q0 56 81 56h11q54 0 103 -55q184 -207 184 -275v-8q0 -27 -36 -27h-5q-38 0 -188 133.5 t-150 165.5zM458 489q-172 0 -172 -72q0 -141 83.5 -230.5t222.5 -89.5q94 0 213 64q55 29 66 29q35 0 35 -37q0 -54 -112.5 -113.5t-233.5 -59.5h-23q-207 0 -331 130t-124 348q0 112 38 210q77 201 275 272q72 26 171 26q150 0 249 -89q51 -46 79.5 -114t28.5 -124v-21 q0 -82 -63 -101q-94 -28 -402 -28z" glyph-name="egrave" horiz-adv-x="1028" unicode="è"/>
<glyph d="M287 623v-19q0 -33 76 -33h27l7 1l102 4l65 6l69 4l29 3q64 0 64 41v41q0 92 -49 155t-128 63h-28q-83 0 -158.5 -75.5t-75.5 -190.5zM804 1396v-15q0 -35 -152.5 -170.5t-191 -135.5t-38.5 34l1 5q0 12 61 113.5t114.5 162t106.5 60.5h17q30 0 56 -20.5t26 -33.5z M395 489q-103 0 -103 -89q0 -52 29 -120q75 -174 271 -174q94 0 211 62q52 28 64 28q33 0 33 -37q0 -59 -144 -129q-97 -47 -204 -47h-22q-111 0 -196 41q-171 83 -226 266q-26 87 -26 174v23q0 92 34 186q68 191 253 262q81 31 168 31h23q148 0 251 -93q54 -48 83 -119.5 t29 -118.5v-21q0 -81 -60 -99.5t-229 -18.5l-85 -3l-21 -1q-21 -1 -42 -1l-22 -1q-21 -1 -69 -1z" glyph-name="eacute" horiz-adv-x="1028" unicode="é"/>
<glyph d="M735 641v26l-1 7q0 94 -60 154t-131 60h-34q-78 0 -149 -80t-71 -177v-13q0 -33 40 -33q12 -2 17 -2l12 -2h26l6 1l270 13l23 3q52 0 52 43zM526 1445h17q45 0 121 -107q149 -209 149 -222v-6q0 -26 -53 -26q-27 0 -121 94t-98.5 94t-35 -26t-43.5 -39t-80.5 -70 t-92.5 -57h-8q-37 0 -37 29.5t153 224.5q87 111 129 111zM288 396q0 -121 84 -208t224 -87q90 0 213 65q54 28 64 28q34 0 34 -38q0 -56 -118.5 -117t-232.5 -61h-22q-193 0 -312 115q-141 137 -141 368v23q0 99 36 195q67 179 232 251q89 39 189 39h23q161 0 263.5 -102.5 t102.5 -252.5q0 -83 -65.5 -103t-292.5 -20l-21 -1q-21 -1 -43 -1l-21 -1q-21 -1 -80.5 -1t-87.5 -21.5t-28 -69.5z" glyph-name="ecircumflex" horiz-adv-x="1028" unicode="ê"/>
<glyph d="M288 629v-19q0 -28 51 -28l30 -3h6l263 14q30 5 41 5q52 0 52 45v19l-1 7q0 93 -54.5 154.5t-141.5 61.5h-7q-99 0 -169 -79t-70 -177zM308 1145q-14 0 -40.5 26.5t-26.5 51.5l-3 14v7l-1 11q0 41 26.5 73t55.5 32q8 2 11 2l14 2h15q34 0 67 -26.5t33 -72.5v-22 q0 -40 -29 -69t-56 -29l-18 -3h-22q-12 3 -26 3zM716 1355h11q44 0 73 -29t29 -69v-22q0 -39 -30 -69t-68 -30h-25q-12 3 -26 3t-42 28t-28 73v7l4 28q0 23 28.5 51.5t73.5 28.5zM284 392q0 -123 85.5 -211.5t225.5 -88.5q65 0 115 19.5t103.5 46.5t63.5 27q35 0 35 -38 q0 -19 -37 -59t-120 -77t-192 -37h-23q-196 0 -316 112q-143 132 -143 370v23v5q0 81 33 173q71 201 262 278q80 33 170 33h22q151 0 251 -90q54 -48 81.5 -115.5t27.5 -124.5v-21q0 -83 -64 -102q-40 -12 -264 -22.5t-245 -15.5q-71 -18 -71 -85z" glyph-name="edieresis" horiz-adv-x="1028" unicode="ë"/>
<glyph d="M33 1392v15q0 48 68 48h22q10 -2 16 -2q43 0 84 -53q188 -242 188 -286v-9q0 -26 -35 -26l-5 1h-5q-25 0 -179 137t-154 175zM221 766q0 35 -16.5 57.5t-66.5 35.5t-50 39q0 21 24 34q70 38 230 38q59 0 66.5 -38t7.5 -202v-179l1 -46v-47l1 -46v-46l3 -105 q1 -15 1 -60.5t15 -68.5t64.5 -44.5t49.5 -43.5q0 -37 -238 -37l-44 -1h-30l-45 -1h-15q-81 0 -81 39q0 28 48.5 49t61.5 43.5t13 87.5l2 29l1 30v31l1 31v293l-3 77q-1 16 -1 51z" glyph-name="igrave" horiz-adv-x="631" unicode="ì"/>
<glyph d="M570 1401v-20q0 -32 -152 -167t-180 -135h-5q-34 0 -34 26v5l1 4q0 54 176 280q50 64 99 64h26q69 0 69 -57zM157 5q-68 0 -68 37q0 28 53 50.5t66 68.5t13 319t-11 315t-67 60t-56 41t25 35q77 37 238 37h14q46 0 53 -34.5t7 -227.5v-277l1 -31v-46l3 -90 q0 -104 17 -130t64 -43.5t47 -43.5q0 -38 -261 -38l-107 -2h-31z" glyph-name="iacute" horiz-adv-x="631" unicode="í"/>
<glyph d="M305 1455q43 0 83 -44q14 -16 83.5 -113t93.5 -128t24 -40v-7q0 -26 -45 -26h-7q-23 0 -117 87l-116 107q-3 0 -107.5 -96.5t-141 -96.5t-36.5 27q0 43 206 286q37 44 80 44zM141 -8q-52 0 -52 37q0 29 52 50.5t62 48.5q19 51 19 218v267l-2 62q0 113 -18.5 138 t-67.5 38.5t-49 40.5q0 22 24 35q73 38 240 38h15q46 0 53 -35q7 -34 7 -214v-219l1 -47v-77l3 -107q1 -15 1 -66t22 -87q11 -18 60 -36.5t49 -44.5q0 -38 -263 -38l-93 -2h-63z" glyph-name="icircumflex" horiz-adv-x="632" unicode="î"/>
<glyph d="M133 1145h-26q-12 3 -26 3t-41.5 27.5t-27.5 60.5l-1 22q0 42 28 75.5t78 33.5h12q9 -3 30.5 -3t47.5 -32.5t26 -74.5l-1 -4v-7l-4 -25q0 -19 -28.5 -47.5t-66.5 -28.5zM607 1268v-22q0 -40 -29 -69t-56 -29l-22 -3h-15q-40 0 -70 30t-30 69v22q3 12 3 27.5t27.5 43 t55.5 27.5l18 3h18l25 -4q25 0 50 -31t25 -64zM164 -10q-66 0 -66 39q0 29 50 49.5t63.5 43t13.5 103.5l2 30l1 31v31l1 32v94l1 46q0 266 -12 305t-69.5 55.5t-57.5 40t22 35.5q70 38 233 38h14q49 0 55 -55q4 -37 4 -377t13.5 -388t67.5 -68t54 -45q0 -38 -254 -38 l-105 -2h-31z" glyph-name="idieresis" horiz-adv-x="634" unicode="ï"/>
<glyph d="M818 470v24q0 163 -59 254q-23 36 -81.5 71.5t-118.5 35.5h-10q-51 0 -101.5 -30t-83.5 -88q-51 -91 -51 -282v-24q0 -175 66.5 -277.5t163.5 -102.5h32q102 0 166 104q77 126 77 315zM377 1121.5q0 25.5 34 62t34 62t-68.5 75.5t-68.5 74q0 30 43.5 30t135.5 -32.5 t125 -32.5t84 15t79 15q50 0 50 -41q0 -20 -18 -58.5t-18 -70.5t69 -142q164 -264 165 -544v-30q0 -362 -256 -487q-94 -46 -191 -46h-30q-189 0 -307 112q-60 57 -96.5 144t-36.5 179v59q0 93 44 189q81 174 253 226q70 21 182 21l85 -3q49 0 49 43q0 78 -80 145 q-30 25 -120 25l-101 -15q-41 0 -41 25.5z" glyph-name="eth" horiz-adv-x="1152" unicode="ð"/>
<glyph d="M472 1365h31q40 0 131.5 -43t135 -43t90 39t59.5 39q30 0 30 -29v-7q0 -60 -64 -118.5t-129 -58.5h-24q-48 0 -135 43.5t-131.5 43.5t-91.5 -39.5t-59 -39.5q-31 0 -31 28v8q0 57 65.5 117t122.5 60zM495 40q0 -38 -230 -38q-140 0 -152 2q-38 7 -38 41q0 17 50.5 40 t63.5 54t13 322.5t-10 321.5t-58.5 51.5t-48.5 33.5q0 33 32 48q69 33 147.5 33t95 -16.5t29.5 -54.5t28 -38q7 0 44 26q139 98 254 98h31q81 0 147 -38.5t97 -109.5q45 -101 45 -505q0 -151 14.5 -178t66 -50.5t51.5 -44.5q0 -39 -128 -39h-31l-32 1l-93 -1h-31 q-90 0 -90 47q0 8 34 40t41.5 48.5t7.5 143.5l-4 223q0 209 -42.5 278.5t-152.5 69.5q-54 0 -117 -33.5t-96.5 -81.5t-33.5 -267l-5 -219q0 -70 13 -102t50.5 -62.5t37.5 -43.5z" glyph-name="ntilde" horiz-adv-x="1240" unicode="ñ"/>
<glyph d="M285 500l2 -60q0 -138 86 -257q70 -97 185 -97h34q98 0 163.5 92.5t65.5 240.5v74q-2 24 -2 36q0 148 -78.5 256.5t-192.5 108.5h-23q-108 0 -174.5 -94.5t-66.5 -261.5v-25zM278 1370v15q0 59 79 59h28q55 0 100 -58q181 -233 181 -285v-10q0 -28 -35 -28h-16 q-37 0 -187 133t-150 174zM542 966h33q89 0 175 -34q169 -66 232 -233q41 -108 41 -216v-34q0 -84 -33 -176q-66 -184 -230 -257q-97 -43 -196 -43h-50q-77 0 -158 33t-138 90t-94 151.5t-37 190.5v50v5q0 94 37 187q71 182 251 254q79 32 167 32z" glyph-name="ograve" horiz-adv-x="1126" unicode="ò"/>
<glyph d="M285 459q0 -162 71 -272q30 -47 81.5 -74t105.5 -27h12l11 1q58 0 112 33q143 87 143 365v25q0 166 -61 266q-35 58 -85.5 87.5t-100.5 29.5h-34q-105 0 -178.5 -96t-73.5 -240l-2 -25l-1 -36v-37zM494 1064h-22q-32 0 -32 33v5q0 15 62.5 119.5t116 164.5t107.5 60h17 q81 0 81 -59v-11q0 -46 -149.5 -179t-180.5 -133zM525 966h66q83 0 169 -38q177 -78 237 -272q26 -84 26 -173v-33v-5q0 -84 -33 -177q-66 -189 -258 -264q-81 -32 -185 -32l-16 1q-193 0 -316 127q-56 59 -92.5 152t-36.5 203v33q0 90 36 184q66 174 212 244q104 50 191 50 z" glyph-name="oacute" horiz-adv-x="1126" unicode="ó"/>
<glyph d="M279 536v-48l1 -12l1 -23q1 -12 1 -23q0 -130 89 -246q67 -87 176 -87h23q59 0 109.5 28t78.5 71q68 105 68 245v83q0 147 -78 257.5t-189 110.5h-12l-11 -1q-113 0 -185 -102.5t-72 -252.5zM547 1438h16q44 0 119 -105q153 -214 153 -227v-6q0 -29 -44 -29h-7 q-29 0 -127 90t-104 90t-111.5 -89t-142 -89t-36.5 27.5t145 212.5q98 125 139 125zM1025 502v-51q0 -94 -36 -189q-71 -188 -256 -258q-84 -32 -186 -32l-16 1q-91 0 -175.5 33t-141 92.5t-93.5 153.5t-37 204v34q0 90 37 188q70 185 240 254q93 38 180 38h33q90 0 180 -35 q172 -67 235 -248q36 -101 36 -185z" glyph-name="ocircumflex" horiz-adv-x="1126" unicode="ô"/>
<glyph d="M278 480q0 -166 77 -275t192 -109h23q117 0 187 99t70 250v60q0 167 -86 289q-68 96 -194 96h-12q-106 0 -180.5 -92t-74.5 -246l-2 -24v-48zM461 1351q37 0 118.5 -43t131 -43t99.5 50q23 23 36 23q37 0 37 -31v-8q0 -69 -69 -127.5t-122 -58.5h-23q-48 0 -141.5 44 t-138 44t-85 -37t-48.5 -37q-38 0 -38 31v8q0 60 84 137q55 50 127 50h8q16 -2 24 -2zM541 972h33q88 0 178 -35q167 -65 237 -248q36 -95 36 -202v-34q-1 -97 -37 -189q-75 -189 -256 -258q-84 -32 -185 -32l-17 1q-299 0 -410 281q-36 92 -36 202v34q0 91 36 186.5t94 156 t145 99t182 38.5z" glyph-name="otilde" horiz-adv-x="1126" unicode="õ"/>
<glyph d="M807 494l-2 59q0 143 -85 254q-66 86 -160 86h-33q-110 0 -175 -100t-65 -259v-61l1 -13l1 -23q1 -12 1 -23q0 -138 78 -233.5t189 -95.5l11 1q60 0 108 32q132 86 132 339v25zM380 1141h-11q-45 0 -74.5 29.5t-29.5 65.5v29q0 37 29 66t56 29l18 3h22q9 -3 24.5 -3 t44 -28.5t28.5 -77.5v-4l-5 -32q0 -20 -28.5 -48.5t-73.5 -28.5zM851 1228q0 -50 -32.5 -82.5t-66.5 -32.5h-28q-12 3 -27.5 3t-45 29.5t-29.5 60.5l-3 24v12q0 45 31.5 76.5t61.5 31.5l19 3h24l15 -3q22 0 50 -28t28 -62l3 -24v-8zM526 968h66q96 0 182 -43 q163 -82 216 -239q36 -104 36 -203v-33q0 -92 -36 -186q-72 -188 -242 -256q-94 -37 -183 -37h-34q-93 0 -177 34q-164 67 -233 248q-36 95 -36 202v34q1 95 37 189q67 171 212 240q104 50 192 50z" glyph-name="odieresis" horiz-adv-x="1126" unicode="ö"/>
<glyph d="M583 1040q33 0 60.5 -33t27.5 -75v-4q0 -48 -33.5 -81.5t-86.5 -33.5h-4q-44 0 -77 27.5t-33 57.5q-2 8 -2 11l-2 15v8l1 4v7q2 8 2 11q0 31 34.5 60t70.5 29h23q12 -3 19 -3zM1004 617v-31q0 -47 -23.5 -52t-431.5 -5h-30l-41 -1h-302q-70 0 -70 35v20l1 10q0 46 24 52 q26 6 430 6l50 1h324q69 0 69 -35zM561 151h-19q-40 0 -73 27.5t-33 56.5l-3 18v18q0 29 30.5 65.5t81.5 36.5h20q40 0 74.5 -28.5t34.5 -73.5v-15q0 -39 -33 -72t-80 -33z" glyph-name="divide" horiz-adv-x="1110" unicode="÷"/>
<glyph d="M288 452q0 -124 44 -212q10 -19 17 -19q22 0 121 149q232 348 232 425v23q0 19 -33 46.5t-87 27.5h-36q-114 0 -184.5 -102t-70.5 -231l-1 -10l-1 -9l-1 -29v-59zM803 638q0 103 -22 103q-6 0 -44 -75.5t-172 -313.5t-134 -239q0 -51 85 -51h15q102 0 168 103 q98 152 98 335q3 28 3 37l3 53v48zM902 1039q39 0 39 -44q0 -9 -10.5 -54t-10.5 -72t26 -80q68 -142 68 -263v-41q0 -111 -41.5 -214.5t-121 -171.5t-164 -91.5t-204.5 -23.5l-86 4q-46 0 -95 -36.5t-76 -36.5h-13q-34 0 -34 36q0 16 11 56t11 62.5t-31.5 94.5t-34.5 81 q-36 94 -36 206l1 21v20q0 98 42 192q127 290 471 290q19 0 54 -2l66 -4q25 0 84 35.5t85 35.5z" glyph-name="oslash" horiz-adv-x="1141" unicode="ø"/>
<glyph d="M301 1381v15q0 58 75 58h10l5 -1q47 0 99 -58q197 -222 197 -281v-4q0 -25 -33 -25h-10q-16 0 -223 161q-120 93 -120 135zM564 112q64 0 125.5 39t86.5 88.5t25 287.5t-10 268.5t-50 59.5t-40 41q0 56 245 56q54 0 54 -91l-1 -28q-3 -81 -3 -143l-1 -29v-58l-1 -59v-57 q0 -275 11 -310t34 -52l38 -21q28 -17 28 -25v-16q0 -13 -38 -33.5t-119.5 -20.5t-101.5 14t-35 53.5t-35 39.5q-3 0 -52 -34t-107 -60.5t-143 -26.5q-177 0 -244 117q-55 96 -55 403l-1 29v58l-1 29q-1 29 -1 96t-17 93t-65.5 42.5t-48.5 36.5q0 55 214 55h26 q48 0 64.5 -27.5t16.5 -213.5l2 -116l2 -58l3 -179q0 -128 45.5 -188t149.5 -60z" glyph-name="ugrave" horiz-adv-x="1207" unicode="ù"/>
<glyph d="M460 1108v9q0 26 203 287q40 51 91 51h21q68 0 68 -53v-16q0 -49 -135 -154q-189 -147 -208 -147h-10q-30 0 -30 23zM999 248q0 -110 65 -143q48 -25 48 -34v-16q0 -13 -38 -33.5t-121 -20.5t-104.5 14t-36.5 54t-36 40q-6 0 -52 -31.5t-106 -60.5t-152 -29 q-185 0 -252 138q-43 90 -43 365.5t-10 308t-44 48.5q-74 35 -74 49q0 33 40 42q81 19 202 19q59 0 71 -47q17 -68 17 -359.5t33 -354.5q44 -84 159 -84q67 0 127.5 40t82 86.5t21.5 288t-10 276t-49.5 61t-39.5 41.5q0 54 221 54h28q55 0 55 -94l-4 -117l-2 -89v-177 l2 -116l1 -29q1 -29 1 -90z" glyph-name="uacute" horiz-adv-x="1202" unicode="ú"/>
<glyph d="M569 1453h8q44 0 81 -44q202 -239 202 -281v-7q0 -26 -46 -26h-7q-23 0 -127.5 96.5t-107 96.5t-107 -96.5t-132.5 -96.5q-44 0 -44 28v6q0 11 59.5 86.5t95.5 126.5q79 111 125 111zM564 99q70 0 131 41.5t81.5 87t20.5 290.5t-10.5 279.5t-50.5 62.5t-40 43 q0 53 225 53h28q55 0 55 -96q0 -1 -2 -60l-3 -88l-1 -90v-90l1 -60v-59l2 -58q1 -29 1 -104t16.5 -108t58 -55.5t41.5 -31.5v-15q0 -14 -38.5 -34t-122.5 -20t-106 15t-37.5 55.5t-35.5 40.5q-3 0 -54 -33.5t-110.5 -61.5t-152 -28t-157 37.5t-100 114.5t-35.5 355.5 t-11 313t-44 50.5q-76 35 -76 49q0 33 40 43q72 18 204 18q49 0 67 -28.5t18 -212.5l2 -57q1 -30 1 -59l1 -59v-60q0 -233 33 -296q44 -85 160 -85z" glyph-name="ucircumflex" horiz-adv-x="1202" unicode="û"/>
<glyph d="M392 1143h-26q-37 0 -64.5 27.5t-27.5 49.5q-4 14 -4 18v29q2 8 2 11q0 27 30 57t71 30h15q50 0 76.5 -33.5t26.5 -65.5v-26q-2 -8 -2 -23.5t-29 -44.5t-68 -29zM802 1362q16 0 44 -28t28 -68v-22q0 -40 -29 -69t-56 -29l-18 -3h-22q-12 3 -26 3t-42.5 28.5t-28.5 71.5 v14l4 25q0 23 27 50t55 27l18 3h18q12 -3 28 -3zM993 352q0 -154 11 -188t36 -52l19 -11l20 -10q27 -16 27 -26v-16q0 -14 -38.5 -34.5t-120.5 -20.5t-101.5 13.5t-36.5 53.5t-21 40q-19 -1 -59 -29q-129 -92 -263 -92h-3q-80 0 -144 31t-97 89q-54 96 -54 466 q0 190 -12.5 227t-47.5 54q-74 35 -74 47q0 54 218 54h26q47 0 63.5 -28t16.5 -218l1 -59l1 -29l3 -178q1 -30 1 -61q0 -157 47 -219t151 -62q63 0 127 41t87 91t23 291t-10 272t-52 59.5t-42 41.5q0 58 224 58h27q53 0 53 -93l-5 -173v-88l-1 -59v-183z" glyph-name="udieresis" horiz-adv-x="1206" unicode="ü"/>
<glyph d="M471 1111v9q0 41 193 289q37 47 86 47h5q40 0 66 -22.5t26 -43.5l-1 -4q0 -31 -156.5 -170t-174.5 -139h-5q-39 0 -39 34zM255 -422q-66 0 -98.5 27t-32.5 62q0 66 79 66q2 0 34.5 -7.5t52.5 -7.5q58 0 119.5 86.5t61.5 193.5q0 64 -197 487q-24 51 -64 149.5t-96 171 t-56 105.5q0 9 20 20q49 26 203 26q106 0 106 -47q0 -5 -13 -29.5t-13 -50.5q0 -89 180 -491q37 -82 54 -82t54 81q147 318 147 467q0 41 -32 75.5t-32 46.5q0 33 144 33h65q101 0 101 -31v-17q0 -15 -51.5 -74.5t-63 -84t-45 -112t-60.5 -156t-44 -116.5l-47 -122 q-122 -311 -196.5 -437.5t-144 -179t-135.5 -52.5z" glyph-name="yacute" horiz-adv-x="1103" unicode="ý"/>
<glyph d="M859 555q0 135 -68.5 232t-156.5 97h-10q-65 0 -128 -38.5t-83.5 -79.5t-20.5 -330v-23l-1 -34v-23l-1 -45v-67q0 -86 56.5 -132t167.5 -46t179 110.5t68 278.5v63q-2 24 -2 37zM395 -166.5q0 -87.5 13.5 -117.5t57.5 -63t44 -50q0 -50 -167 -50h-119q-135 0 -135 36 q0 22 37 51.5t48 71t11 118t3 136.5l8 309v188l-1 31v187q0 480 -10.5 544.5t-47.5 91.5q-68 50 -68 68l10 13q57 44 218 44q52 0 71.5 -48t19.5 -228l2 -120q0 -146 36 -146q18 0 106 34q86 34 162 34q162 0 265 -104q57 -58 89.5 -152.5t32.5 -187.5v-33q0 -96 -36 -196 q-71 -196 -254 -266q-80 -30 -180 -30l-113 5q-66 0 -84.5 -41.5t-18.5 -129z" glyph-name="thorn" horiz-adv-x="1194" unicode="þ"/>
</font>
</defs>
</svg>
